<?xml version="1.0" encoding="UTF-8"?>
<svg id="Layer_1" xmlns="http://www.w3.org/2000/svg" version="1.1" viewBox="0 0 153.5 136.5">
  <!-- Generator: Adobe Illustrator 29.1.0, SVG Export Plug-In . SVG Version: 2.1.0 Build 142)  -->
  <g>
    <path d="M-209.4-60.6c-.2,1-.6,2.4-1.3,4.3-.1.2-.3.4-.4.6-.2.3-.3.6-.5.9-.3,1.1-.9,2.9-1.9,5.3-.1.2-.3.4-.4.6s-.3.5-.5.8v.4c0,.2,0,.3-.1.5,0,.4-.4,1.2-1,2.3-.3.6-.6,1-.8,1.4s-.3.7-.4,1v.6c0,.2,0,.5-.1.8,0,.4-.2.8-.5,1.1-.2.3-.3.5-.4.7s-.2.3-.3.4l-.5,1.6c-.2.8-.3,1.3-.5,1.7-.1.3-.3.7-.5,1.1-.2.4-.4.9-.7,1.4-.4.9-.8,1.7-1.1,2.2s-.5,1-.6,1.3c-.6,1.5-1,2.7-1.2,3.5-.1,1-.1,1.7,0,2,0,0,0,0,.2.1.1,0,.2.2.2.3h.2c0,0,.2,0,.2,0,0,0,.1,0,.2,0,0,0,.2.1.3.1.5,0,1-.5,1.6-1.4.2-.3.5-.7.7-1s.4-.7.6-1c.4-.4.9-.9,1.4-1.5s1.2-1.3,1.8-2.2c.2-.3.3-.7.6-1.1s.5-.9.8-1.5c.2-.2.4-.4.7-.6s.5-.5.8-.8c.2-.3.3-.6.5-1s.5-.8.8-1.2c.1-.1.3-.3.7-.5.2,0,.3-.2.4-.2l.2-.2c0-.4.2-.8.4-1.3.3-.2.8-.6,1.4-1.2.1-.2.3-.5.4-.8.2-.3.3-.7.5-1.1.1-.2.3-.3.5-.4s.5-.3.8-.4c.6-.3,1-.5,1.2-.7l.8-.8c.3-.3.6-.6,1-1,.6-.3,1.3-.8,2-1.5.1-.3.3-.6.4-1s.4-.9.7-1.4c.6-.3,1.3-.8,2.2-1.6.1-.2.3-.4.4-.7.2-.3.4-.6.6-1,1.5-1.7,3.5-2.9,6.2-3.5,0,0,0,.1.2.3.2.2.2.4,0,.8-.2.6-.6,1.4-1.2,2.4,0,.6-.3,1.5-.7,2.7-.2.2-.3.4-.5.6-.2.3-.4.5-.7.9-.3.6-.6,1.2-1.1,2s-1,1.7-1.6,2.7c-.2.2-.4.5-.7.8-.3.3-.6.7-.9,1.1-.5,1-1,2.4-1.3,4.3-.2,1.4-.4,2.5-.6,3.2-.2.7-.3,1.2-.3,1.2,0,.4-.2.9-.5,1.5s-.6,1.3-1.1,2.2c-.4.8-.7,1.5-1,2.1-.3.6-.4,1.1-.5,1.6,0,.4,0,.9-.2,1.5,0,.6-.2,1.3-.3,2.1-.1.8-.4,1.5-.8,2.2-.2.4-.4.7-.6,1-.2.3-.3.5-.4.7-.1.4-.2,1.1-.4,1.9,0,.4,0,.8,0,1s0,.4,0,.5.1.3.4.7c.2.3.3.6.3.9,0,.3,0,.5-.1.7s0,.2,0,.2c-3.9,1.6-6.1,2.5-6.7,2.5s-.4,0-.5-.2-.2-.2-.4-.3c0,0,.1-.1.1-.2s0,0,0-.2c0,0,0-.2,0-.2v-.5c0-.1,0-.2.1-.3.2,0,.3-.2.5-.3s.4-.3.6-.5c1-.7,1.7-1.4,2.3-2.1s1-1.3,1.2-1.9c0-.2.2-.4.2-.6,0-.2.1-.5.2-.8,0-.8.2-2,.4-3.5.1-.6.4-1.3,1-2,.1-.6.3-1.2.4-1.9.2-.7.4-1.5.8-2.5.2-.3.5-.6.8-1s.6-.8.9-1.3c.2-.4.4-1,.5-1.6s.3-1.3.4-2.1c.2-.9.4-1.7.5-2.3s.2-1.1.3-1.4c.4-.8.9-1.6,1.3-2.5.4-.9.9-1.8,1.3-2.9,0-.2,0-.3-.2-.5,0-.2-.1-.3-.2-.3s0-.1,0-.1c-.6,0-1.3.3-2.3.7,0,.2-.2.4-.2.6,0,.2-.2.5-.4.8-.2.2-.5.4-.9.6-.3.2-.7.5-1.2.8-.3.5-.7,1.2-1.3,1.9-.2,0-.5.3-.8.5-.3.6-.7,1.2-1.2,2-.5.7-1.1,1.6-1.7,2.6-.3.3-.7.6-1.1,1-.4.4-.9,1-1.5,1.6-.4.7-1,1.7-2,3.1-.1,0-.3.2-.5.3-.2,0-.4.2-.7.5,0,.2-.2.4-.2.6,0,.3-.2.5-.4.9-.4.2-1.1.8-2,1.6-.2.3-.5.7-.8,1.2s-.7,1.1-1.1,1.7c-.4.3-.8.7-1.3,1.2s-1.1,1.1-1.7,1.8c-.9,1.1-1.6,2.1-1.9,2.9,0,.2-.2.4-.2.7,0,.2-.1.5-.2.8-.2,1-.9,2-2.1,2.9-.2.2-1.2.8-3.2,1.9l-.3.5h-1c0-.2,0-.6-.2-1.1,0-.2-.1-.4-.1-.6v-.5c.2-.3.3-.6.5-1s.4-.8.7-1.4c.4-1.5,1.2-3.8,2.5-7,.5-.8,1.2-1.9,2-3.4.2-1.1.7-2.9,1.4-5.2.7-1.1,1.6-2.9,2.5-5.4.1-.4,0-.8-.2-1.1-.2-.3-.5-.5-.8-.8-.3,0-.7,0-1.2.2-.4.2-1,.8-1.8,1.9-.8,1.1-1.4,1.7-1.8,2-.2.2-.5.4-.9.6-.4.2-.8.5-1.3.8-.2.3-.6.7-1,1.2-.4.5-.9,1-1.4,1.7l-7.3,5.6c-.2.3-.5.6-.9.9s-.8.7-1.3,1.2c-.4.2-.9.4-1.4.7-.6.3-1.2.6-2,1.1-.2.4-.8.9-1.6,1.6-.4.2-1,.4-1.6.7s-1.3.6-2.1,1.1c-.2.4-.7.8-1.4,1.4-.2,0-.4,0-.7.2-.3,0-.6.2-1,.2-.5.4-1.1.8-1.8,1.1-.7.4-1.4.7-2.3,1.1h-.3c0,0-.2,0-.3,0-.3,0-.7.2-1.2.5-.3.2-.6.3-.8.5-.2,0-.4.2-.4.2-.4,0-.9.1-1.7.2-.9.6-2.2,1.2-4,2-.8.2-1.7.3-2.8.3-3.5,0-5.2-.7-4.9-2,.1-.4.5-.8,1.1-1.2.5-.3.9-.5,1.1-.7s.4-.2.5-.3.1-.2.3-.4c.2-.2.4-.5.7-1,.4-.6.9-.9,1.3-1,0,0,.3,0,.5,0,0,0,.5.2,1.8.5.8.2,2.2.4,4.1.4s4.5-.2,5.7-.6c.2-.2.5-.3.9-.5.4-.2.8-.4,1.3-.7.6-.1,1.5-.4,2.8-.7.2-.1.4-.3.6-.4s.5-.3.8-.5c.6-.2,1.5-.6,2.8-1.2.5-.5,1.4-1.2,2.6-2.2.4-.2.9-.4,1.5-.7.8-.5,1.8-1.3,2.9-2.3.9-.8,1.5-1.4,2-1.8.4-.4.7-.6.8-.7.5-.3,1.1-.8,1.8-1.3s1.5-1.2,2.4-2c.3-.4.7-1,1.3-1.6.5-.6,1.1-1.4,1.8-2.2.5-.3,1.1-.8,2-1.6.4-.7,1-1.7,1.7-2.9.7-.6,1.6-1.7,2.8-3.1.1-.4.2-.8.4-1.2l.7-.7c.3-.3.5-.6.9-1,.2-.3.4-.8.7-1.3.3-.5.6-1.1,1-1.8.5-.4,1.2-1.1,2-2.1.2-.3.4-1.2.7-2.8,0-.3.2-.6.2-.9,0-.3.2-.6.4-.8.4-.6.6-1,.7-1.3,0-.4.2-.8.3-1.3s.3-1,.5-1.6h.2c.2,0,.7-.6,1.7-1.4,1-.9,1.6-1.4,1.6-1.5,0-.2.2-.4.4-.6.2-.2.9-.5,2.3-1,0,0,1.1.7,1.1.7Z"/>
    <path d="M-183.1-34.9h0c.2,0,.4.1.5.2s.3,0,.4.1c.2,0,.4.2.5.4,0,.1.2.3.2.6,0,.1,0,.3,0,.5s0,.4,0,.6c.1,1.3,0,2.1-.2,2.3-.2.2-.3.4-.4.6s-.2.3-.3.5c0,.1-.1.2-.2.3,0,0,0,.1-.1.2,0,.6,0,1.2-.5,1.9-.3.6-.7,1.2-1.2,1.7,0,0,0,.2,0,.3s0,.3-.2.4c0,.3-.2.6-.4.8,0,0-.1.1-.2.3-.1.1-.3.3-.7.5-.4.2-.5.5-.5.9,0,0,0,.2,0,.2s0,.2,0,.2c0,.2.1.4.2.6,0,.2,0,.4-.2.7,0,.1,0,.2-.1.4s0,.3-.2.4-.1.3-.2.4,0,.3-.1.4,0,.3,0,.4,0,.2,0,.3c0,.6.4,1.2.8,1.6.6.4,1.1.7,1.7.7s.5,0,.8-.3c.2,0,.3-.1.4-.2s.2,0,.3,0,.3.2.9.7c0,.3,0,.8-.2,1.4-.1.2-.3.4-.7.5-.2,0-.4.2-.5.2s-.2.1-.3.1c0,0,0,.2-.2.3,0,0-.2.2-.3.5-.2.3-.4.5-.8.6-.7.5-1.5.7-2.6.7s-1.5-.2-2.2-.7c-.8-.5-1.4-.7-1.8-.7-.8,0-2,.3-3.6.9l-.3.3h-.6c-2.7.3-4.2-.6-4.4-2.6.2-.3.3-1,.4-2.1,0-.4,0-.9.5-1.5.5-.8.8-1.2.8-1.4,0-.2,0-.5.2-.8s.2-.6.2-.9c0-.3.2-.7.3-1s.3-.8.4-1.2c0,0,.2-.2.3-.3,0,0,.2-.2.3-.4,0-.1.2-.2.3-.4s.2-.3.4-.5c0,0,0-.2.2-.5,0,0,0-.2.1-.3,0,0,0-.2.1-.4,0-.1.2-.3.5-.5,0,0,.2-.2.3-.2s.2-.2.4-.2.2-.2.4-.2.2-.1.3-.2c.2-.1.3-.2.3-.2.4-.9,1.1-1.8,2-2.7,1.2-1.1,2.1-1.6,2.8-1.6,0,0,.5,0,1.3-.3.8-.2,1.2-.3,1.2-.4.2-.2.4-.3.7-.5.2-.2.5-.4.8-.6.5-.4,1.1-.9,1.8-1.6h0ZM-194.4-20.1h0v.3s0,.1,0,.3c-.2,0-.3.2-.5.3s-.3.3-.5.5c-.3.3-.6.7-.9,1.1-.2.2-.3.4-.4.6,0,.2-.2.4-.3.6-.1.4-.2.8-.1,1.1,0,0,0,.3.3.5,0,0,.2.2.3.3s.2.2.3.3c0,0,.2.2.3.2s.2.2.4.2c.2.1.4.2.5.2,1.2,0,2-.2,2.4-.7,0,0,.1-.2.2-.3s0-.2.2-.3l.4-.5c.2,0,.4-.2.6-.3s.4-.2.6-.4c.4-.2.7-.6.9-1,0-.2.2-.5.2-.9,0-.2,0-.3,0-.5v-1.6c0-.3,0-.5.1-.8,0,0,0-.2.2-.5.2-.3.4-.8.7-1.4.4-.8.5-1.7.4-2.7s-.5-1.6-1.4-1.6-1.8.9-3.2,2.8c-1.3,1.8-1.9,3.1-1.9,4.1Z"/>
    <path d="M-145.8-71h0c1.2,0,2.3.6,3.2,1.9.4.1.7.2,1.1.3.5.1.7.3.7.7s0,.4-.2.7c0,0,.1.2.3.5s.3.5.5.8c.2.4.4,1,.4,1.8v.5c0,.1,0,.3,0,.4s0,.3,0,.4c-1.8,1-3.6,1.5-5.5,1.5-.2,0-.6.1-1.1.4h-.1c-.2,0-.4,0-.8-.1s-.6-.2-.8-.2c-.4,0-1.7.3-3.9,1-2.3.6-3.6,1.1-3.9,1.3-.2.2-.4.3-.6.4l-.9.5c-.3,0-.6.1-.8.2-.3,0-.5.1-.8.2-.6.2-1.1.5-1.4.8v.2c-.3.2-.7.7-1.2,1.5-.4.7-.7,1.2-.8,1.7,0,.4-.3.8-.8,1.1-.6.4-.9.8-.9,1,0,.3-.2.6-.3.9,0,.3-.2.6-.3.9-.3.7-.6,1.5-1,2.2-.1,0-.2.2-.4.4-.1,0-.3.2-.5.5,0,.3,0,.5,0,.7,0,.1,0,.3-.1.4s0,.3-.1.5c-.4.3-.9.8-1.4,1.4,0,.6-.1,1.3-.4,2.3-.1.1-.3.3-.4.5-.2.2-.4.6-.6,1v.5c0,0,0,.2,0,.4s0,.3,0,.4c0,.1-.1.3-.3.5,0,0-.2.2-.2.3,0,.1-.2.3-.2.5,0,.3-.2.7-.3,1.2s-.3,1.1-.5,1.7v.2c-.1,0-.5.4-.5.4,0,.2,0,.3-.1.5,0,.2,0,.4-.2.7-.2.5-.4.8-.5.9,0,0,0,.2,0,.3s0,.2,0,.2c0,.2-.1.4-.2.6,0,.1-.3.4-.8,1-.2.2-.3.7-.3,1.6s-.4,1.4-1.1,2.5h-.3c0,.4-.1.9-.3,1.4-.2.5-.4,1.2-.7,2l-.3.2v.5c0,.2,0,.4,0,.6,0,.5-.3,1.1-.6,1.7-.4.7-.5,1.2-.5,1.6,0,.8.3,1.2.8,1.2s.4,0,.8-.2.6-.2.8-.2.4,0,1,.3c0,.2,0,.5.2.9,0,.2-.7.7-1.9,1.6-.3.2-.5.4-.8.6s-.4.3-.6.5c-.2.1-.3.2-.4.3s-.1.1-.2.2c0,0-.2,0-.3,0s-.3,0-.4,0c-.3,0-.7.1-1.1.2-.3.3-1,.6-2.2,1h-.4c0,0-.2,0-.2,0-.1,0-.2,0-.3,0,0-.4-.1-.7-.2-.8,0,0,0-.2-.1-.2,0-.3.1-.6.4-1,.2-.3.4-.5.5-.8.2-.7.6-1.9,1.3-3.5.2-.2.6-.6,1.1-1.2,0-.2,0-.3,0-.5,0-.1,0-.3,0-.5,0-.4,0-.8.2-1.3.2-.2.5-.5.8-1l1.4-4.2c0-.4.3-.9.8-1.5.6-.6.8-1.2.8-1.9s.1-.7.4-1.2c.1-.2.2-.4.3-.6s.1-.2.2-.3c0-.2,0-.4.2-.6,0-.3.1-.6.2-1,0-.2.2-.3.4-.5,0,0,.2-.2.2-.3,0,0,.2-.2.2-.4,0-.4.2-.9.4-1.6,0,0,.2-.2.2-.4,0-.1.1-.3.3-.5.1-.7.4-1.7.7-3.2,0-.1.2-.2.2-.4,0-.1.2-.3.2-.5.2-.4.3-.8.5-1.3,0,0,0-.2,0-.4s0-.5,0-.7c.4-.4.9-1,1.6-1.9,0-.2,0-.4.2-.7,0-.3.1-.6.2-1.1,0-.2.2-.3.3-.5s.2-.4.4-.6c.2-.4.4-.9.7-1.4,0-.2,0-.5,0-.8,0-.3.1-.7.2-1.3,0-.2.4-.6.9-1,.4-.4.7-.7.8-.9,0-.2,0-.4.2-.8,0-.2,0-.3.1-.5s0-.4.2-.6c0,0,.2-.1.3-.2s.2-.2.3-.2c.2-.2.4-.3.7-.5,0,0,.2-.2.2-.3,0-.1.2-.3.2-.4,0-.2.2-.3.3-.5s.2-.3.4-.5c.2-.2.5-.4.8-.6.3-.2.7-.6,1.1-1,0-.5.4-1.2.9-1.9,0,0,.2,0,.3,0s.2,0,.4-.1c.3,0,.5-.2.8-.4,0-.2.2-.6.4-1.1,0,0,0,0,.1,0s0,0,0-.1c0,0,.2-.2.3-.3s.3-.2.4-.3l.4-.4c.1-.1.3-.3.4-.5l1-1.1c.2-.1.7-.2,1.5-.3.6,0,1-.4,1.3-.8h.2c.8-1.1,1.8-2,3.1-2.8s2.6-1.1,4-1.1h0Z"/>
    <path d="M-153.8-44.3h0c.7,0,1.1.3,1.1.8s-.4,1.6-1.3,3.3c-.8,1.7-1.4,2.6-1.8,2.8l-1.8,2.5c.1,0,0,.1-.2.4s-.5.5-.7.8-.5.6-.7.8c-.2.2-.2.4-.1.4.1,0,.4,0,.9,0s1,0,1.6,0c.6,0,1.1,0,1.7,0,.5,0,.8,0,1,.1v.8c0,.1-.2.5-.7,1-.2.3-.4.6-.7.9s-.6.7-.9,1.2c-.3.1-1,.2-2,.2s-.5,0-1-.1c-.4,0-.7,0-.9,0s-.3.3-.3.5c0,.3-.1.5-.2.5-.1,0-.1.1,0,.2s.1,0,0,.2c-.4.3-.7.6-.9.8s-.3.5-.4.7c0,.2-.2.4-.3.7,0,.2-.3.5-.6.8,0,.2-.2.2-.3,0s-.2-.3-.2-.3c-.1.2-.2.6-.4,1.2-.2.6-.4,1-.5,1.1,0,0-.3.4-.8,1-.4.4-.5.8-.5,1.2,0,.2,0,.4,0,.5v.4c0,.3-.2.6-.5,1-.4.4-.6.8-.6,1.2,0,.6.3,1,1,1.1.3,0,.6.1.9.2s.6,0,.9,0c.7-1.2,1.6-1.8,2.6-1.8s1,.2,1,.7c0,.8-.6,1.4-1.8,1.9-.2,0-.4.2-.7.2-.2,0-.5.2-.7.2-.2,0-.5.2-.7.2s-.5.2-.7.2c-.2.1-.5.5-1,1.2-.3.4-.8.7-1.4.7-1.2,0-2.1-.2-2.5-.6-.4-.4-.7-1.1-.7-2.3s0-2.7.3-3.5c.2-.4.5-.8,1-1.3.5-.5.9-1.1,1.1-1.7.2-.3.4-1,.5-2.1,0-.4.1-.8.3-1.2.2-.4.3-.9.5-1.3s.3-.9.5-1.3.3-.8.4-1.1c0,0,0-.2-.4-.5-.3-.2-.6-.5-1-.8s-.7-.6-1-.8c-.3-.3-.4-.5-.3-.6,0-.1.3-.3.8-.5s1-.5,1.6-.7,1.3-.5,2.2-.8c.6-.4,1-.9,1.1-1.4,0,0,.2-.4.4-.9s.6-1.1,1.3-1.6c.3-.2.6-.7,1.1-1.3.1-.2.2-.4.4-.7s.3-.6.4-1c.2-.3.3-.6.4-.9s.2-.4.3-.5c.2,0,.4-.2.6-.4,0,0,.2-.2.3-.3s.3-.2.4-.3c.1-.1.2-.3.4-.4,0-.1.2-.3.4-.5s.4-.4.6-.7c.5-.6,1.1-.9,1.7-.9h0Z"/>
    <path d="M-142.1-31.8c.4-.3.6-.6.7-.9.2,0,.5-.2.9-.2.5,0,.8,0,.9-.1,0,0,.5-.3,1.3-.9.4-.4,1.1-.6,1.9-.6h1.3c.2,0,.3,0,.1,0,.6.3.9.8,1,1.6,0,.2-.5,1.2-1.5,3.1-1,1.8-1.5,3.1-1.4,3.9,0,.2-.2.6-.5,1.1-.4.6-.5,1.1-.5,1.7,0,.4-.1.6-.3.8-.2.2-.4.3-.4.4v.4c.2.2.4.3.5.4.2,0,.3.2.4.3.2.2.4.6.5,1,0,.6-.2,1.2-.7,1.9-.8.7-1.6,1.4-2.4,2.2-.8.8-1.7,1.6-2.6,2.5,0,0-.1.2-.2.3,0,0-.2.2-.2.4h-.4c-.2.1-.4.1-.4.2-.8-.5-1.2-1.3-1.3-2.3,0-.9.3-1.5,1.1-1.9.8-.4,1.2-1.1,1.1-2.2,0-.4.1-.9.4-1.4.2-.4.4-.6.5-.8s.2-.3.2-.4c0-.5.2-1.3.5-2.2.4-.3,1-.8,1.6-1.7,0,0,0-.2,0-.5,0-.2,0-.5,0-.8v-.6c.6-.6.9-1.2.9-1.6,0-.2,0-.5-.2-.9h-.5c0-.1-.2,0-.5,0-.2.1-.4.2-.6.1,0,0-.2,0-.5-.1-.3-.1-.5-.2-.7-.2h-.3c-1.2,1.5-2.3,2.5-3.2,2.9,0,.2-.2.5-.3.8-.1.4-.2.7-.4.8-.3.1-.7.6-1.3,1.3,0,.2-.2.5-.3.9s-.3.8-.5,1.4c-.2.4-.4.9-.8,1.4-.2.2-.3.5-.3,1s0,.4,0,.6c0,.3,0,.6,0,.9,0,.3,0,.6,0,.8,0,.2,0,.4,0,.5l-.4.4c-.2.2-.4.4-.6.6l-1.3,2.3c-.7,1.2-1.2,1.8-1.5,1.8-1.1-.2-1.6-1.3-1.4-3.1.1-.2.2-.5.4-.9s.3-.8.4-1.3c0-.3,0-.6,0-1s0-.8,0-1.4c0-.3,0-.6.2-.9l.3-.2c.2-.2.3-.4.5-.7s.3-.5.5-.7c.3-.5.5-.9.5-1.4,0-.2,0-.5-.1-.8s0-.8,0-1.2v-.2l.4-.5c0-.4,0-.8.1-1.3,0-.1.2-.4.5-1,.4-.5.6-1.2.7-2.2,0-.5.3-1,.8-1.5.6-.8,1-1.3,1-1.5,0-.4.3-.9.5-1.5.2-.2.5-.5.9-.9,0,0,.1-.2.2-.5v-.5c.4-.2.6-.6.9-1,0-.4.3-1.1.5-1.9.2-.2.4-.4.6-.6s.5-.5.8-.8c0-.5.3-1.1.5-1.9,0,0,.2-.2.3-.4.1-.2.3-.4.4-.6,0-.2.2-.6.4-1.2.4-.3.9-1.4,1.7-3.3l.2-.7c.2,0,.3-.2.5-.2s.4-.2.6-.2c.2-.2.5-.5.9-1.1.3-.4.8-.8,1.3-1,.2-.4.5-1,1-1.9.6-.4,1.3-.9,2.2-1.7.5-.6,1.4-1.6,2.9-2.9l1.1-.5c.3-.3.7-.7,1.3-1.2.5-.5,1.1-1,1.8-1.6.2,0,.4-.2.8-.3s.6-.3,1.1-.5c0,0,.2-.2.3-.5.1-.2.2-.4.2-.4l2.2-1.5h.9c.3,0,.9-.2,1.9-.7s1.7-.7,2.2-.7l1.8.2c.3,0,.6,0,1-.3l.7-.3c.4,0,.7.1,1.1.4.3.2.5.3.7.4s.3.2.4.2c.8.2,1.9.6,3.2,1.1.2.4.7,1,1.4,1.7.2,0,.3,0,.5.1.2,0,.4.2.7.3,0,0,.3,1.2.9,3.4,0,0,0,.2,0,.2,0,0,0,.2.1.2.1.2.2.5.2.7s0,.6-.2,1.1-.3,1.1-.5,1.8c-.4,1.4-.7,2.3-1,2.7h-.7c-.2,0-.3-.1-.3-.4,0-.1,0-.2-.1-.4,0-.2-.2-.5-.3-.7-.1-.2-.2-.5-.3-.7,0,0,0-.7,0-1.8,0-.5-.3-1.3-1.1-2.4-.8-1-1.5-1.7-2-1.9-.4,0-1-.2-1.9-.4-.3-.2-.8-.4-1.3-.6-.5-.2-1.2-.4-1.9-.6-.4,0-1.1.1-1.9.4-.9.2-1.6.4-2,.4s-1,.2-1.6.7c-.4.3-.7.5-1,.7s-.4.3-.5.3c-.4,0-.9.1-1.6.4,0,.1-.2.3-.4.4-.2.2-.4.4-.6.6-.3,0-.9.4-1.7.8-.2.4-.4.8-.8,1.2-.5.2-1.1.5-1.9.8-.4.2-.8.4-1.2.7-.3.3-.6.6-.8.9-.1.5-.4,1.2-.9,2.1h-.3c-.2.4-1.2,1.1-3.1,2.3h-.2c0,.3-.2.6-.4,1.1-.2.4-.4.9-.6,1.5-.2.2-.4.4-.6.6s-.5.5-.8.8c-.3.7-.7,1.5-1.3,2.5-.2.2-.4.5-.7.8-.3.3-.6.7-1,1.1,0,.3-.3.9-.7,1.7-.2.2-.6.7-1,1.4,0,.2,0,.4,0,.5,0,.2,0,.3,0,.5,0,0-.2.2-.3.4s-.2.4-.4.6c0,.2,0,.4-.1.7s-.1.6-.2,1c-.2.2-.3.4-.5.6-.2.3-.4.6-.6.9-.4,1-.6,1.6-.6,1.9s.1.6.4.8l2.6-1.9,1.1-.7h0Z"/>
    <path d="M-121-35.3h0c.4,0,.8.3,1.4.8h.2c0,0,.1,0,.3.4.1.3.2.4.2.5,0,.4,0,1-.2,1.8l-.2.9c0,.2,0,.3-.1.5s0,.3-.1.5c0,.4,0,.8.1,1l.4.7c.2,0,.4,0,.5,0s.2,0,.3,0l.9-.4v.7c0,.2,0,.3,0,.4s0,.2,0,.3c-.2.7-.4,1.2-.8,1.5-.6.1-1.2.5-1.9,1.2h-.4c-.2.3-.5.7-.9,1.1h-.5c-.4.2-.8.4-1.2.5-.3,0-.6.2-.9.3-.3.1-.6.2-1.1.3-.8.2-1.4.4-1.9.6s-.8.3-1,.4c0,0-.2.2-.3.3s-.3.3-.5.4-.4.3-.6.5c-.2.2-.4.3-.7.5-.4.7-.8,1.7-1,3v.4c.7.4,1.3.7,1.5.7.8,0,1.9-.6,3.5-1.7,1.6-1.2,2.5-2,2.6-2.6,0-.3,0-.7,0-1.1.1-.8,1.1-1.1,3-1.1s1.2.3,1.1.8c0,.4-.2.7-.6,1.1-.2.2-.3.3-.5.4-.2.1-.3.2-.5.4,0,.2-.2.3-.3.5-.1.2-.2.4-.4.6-.3.5-.6,1.1-.9,1.8-.2,0-.3,0-.4,0h-.9l-2.2,1.4-.5.6c-.2,0-.5.2-.8.3-.3.1-.6.3-.9.5-.2.1-.3.2-.5.4-.2.1-.3.2-.5.4s-.4.2-.5.4c-.2.1-.3.3-.5.4-.6.3-1.4.5-2.6.5-2.1,0-3.1-.6-3.1-1.9s0-.5,0-.7c.4-.9.9-1.9,1.4-2.8s.9-2,1.4-3v-1c0-.3.4-.9,1.2-2,.8-1.1,1.2-1.9,1.3-2.3,0-.2,0-.4.2-.5l.5-.5c0,0,.2-.2.2-.3s.2-.2.2-.4c.1-.1.2-.3.3-.7,0-.3.2-.5.5-.7.2-.2.4-.3.5-.4s.2-.1.3-.2c.1-.2.4-.8.8-1.6.1-.1.3-.2.5-.4,0,0,.2-.2.3-.2.1,0,.2-.1.4-.2.3-.2.6-.3.7-.4.2-.2.4-.3.4-.4,0-.1.1-.3.3-.5,0,0,.2-.2.2-.3,0-.1.2-.3.2-.5.2-.2.7-.6,1.4-1,.8-.5,1.3-.7,1.6-.7h0ZM-126.9-25.8h0c-.2,1.2.1,1.8,1,1.8s1.3,0,1.1,0l1.2-1.2c.4-.4.6-.8.7-1.2,0-.6,0-1.1-.3-1.6-.3-.5-.7-.7-1.3-.7-1.3,0-2.1,1-2.4,2.9h0Z"/>
    <path d="M-95.2-28.8c0-2.4,1.5-4.1,4.4-5.3.9-.4,1.7-.5,2.5-.5h.6c.3,0,.6,0,1.1.1.3,0,.6,0,1,0s.6,0,1,0c.2,0,.6-.2,1.3-.4.5-.2.9-.2,1.3-.2.4.2,1,.4,1.8.7.4,0,1.1,0,1.9-.2.4,0,.8-.1,1.1-.2.3,0,.6,0,.8,0,.2,0,.4.2.7.3.3.1.6.3,1,.5.5,0,1.2,0,2.2,0,.4.4,1.1.8,2.2,1.3.1,0,.3,0,.5.1.2,0,.5,0,.9.1.2-.2.3-.4.5-.6.2-.2.5-.5.8-.8.5-.3,1.2-.8,2.2-1.6.2-.3.5-.7.8-1.2.3-.5.7-1.1,1.1-1.7.4-.3.8-.7,1.3-1.2s1.1-1.1,1.7-1.9c0-.2.2-.3.2-.5s.2-.4.3-.7c.5-.4,1-1,1.6-1.7.2-.4.5-.8.8-1.3.4-.5.8-1.1,1.3-1.8.6-.4,1.4-1.1,2.3-2.1.2-.2.5-1.1.9-2.8.2-.7.5-1.2.8-1.7.4-.5.6-.9.8-1.2.2-.7.5-1.7,1.1-2.9h.2c0,0,.3-.2.6-.4s.7-.6,1.3-1c1.2-.9,1.8-1.4,1.8-1.6,0,0,.2-.3.4-.6.3-.2.7-.3,1.1-.5.4-.2.8-.3,1.3-.5.1,0,.3.2.4.3s.4.3.6.4c-.2.5-.4,1.1-.6,1.8s-.6,1.5-1,2.4c-.2.2-.3.4-.5.6s-.4.6-.6.9c-.2.6-.5,1.4-.9,2.2s-.9,1.9-1.5,3.1c-.3.3-.7.8-1.3,1.4,0,.2,0,.6-.2,1,0,.4-.4,1.2-1.2,2.3-.7,1-1.1,1.8-1.3,2.4,0,.2,0,.4-.1.6s-.1.5-.2.8c-.1.4-.3.7-.6,1.1-.4.6-.7.9-.7,1.1-.2.4-.4.8-.6,1.3-.2.5-.5,1.2-.8,2,0,.2-.2.5-.5.9-.2.4-.6.9-1,1.6-1.9,3-3,5.4-3.5,7.2-.2,1-.3,1.6-.2,1.8-1.4,5.2-2.2,8.1-2.5,8.7,0,0-.1.2-.2.5-.1.2-.2.6-.4,1-.2.5-.4,1-.8,1.5s-.9,1-1.6,1.3c-1.1.6-2.2,1.3-3.4,1.9l-.4.5h-1c0,0,0-.2,0-.4,0-.2,0-.4,0-.7,0-.4,0-.8,0-1.1.2-.3.4-.6.6-1s.5-.8.8-1.4c.3-.8.7-1.8,1.2-2.9s1.2-2.5,2-4c.3-.4.7-.9,1.1-1.4.4-.6.8-1.2,1.2-2l1.3-3.8c-.2,0-.4,0-.7,0s-.6,0-.9,0c-.6,0-.9,0-1-.2-.1-.1-.2-.3-.4-.4-.5-.4-1.5-.7-3-.9-.2.2-.3.3-.5.6s-.5.5-.8.8l-7.7,5.6c-.3.3-.6.6-1.1.9s-.9.7-1.5,1.2c-.4.2-.9.4-1.5.7s-1.3.6-2.1,1.1c-.2.2-.4.4-.7.7-.3.3-.6.6-1,.9-.4.2-1,.4-1.6.7s-1.4.6-2.2,1.1c0,0-.4.3-1,.8s-1.3.9-2,1.4c-.7.5-1.4,1-2.1,1.4s-1.1.7-1.3.9c-.2,0-.4,0-.8.2s-.6.2-1.1.2c-.6.4-1.2.8-1.9,1.1-.7.4-1.5.7-2.3,1.1h-.2c-.1,0-.2,0-.3,0-.3,0-.7.2-1.4.5-.3.2-.6.3-.8.5-.2,0-.4.2-.4.2-.4,0-1,.1-1.8.2-1,.6-2.3,1.2-4,2-.8.2-1.8.3-2.9.3-3.5,0-5-.7-4.7-2,.1-.4.5-.8,1.3-1.2.5-.3.9-.6,1.1-.7s.4-.3.4-.3.2-.2.4-.4.5-.5.8-1c.5-.6,1-.9,1.4-1,0,0,.3,0,.5,0-.1,0,.5.2,1.7.5.8.2,2.2.4,4.2.4s4.6-.2,5.8-.6c.2-.2.5-.3.9-.5s.8-.4,1.3-.7c.6-.1,1.6-.4,2.9-.7,0,0,.4-.3,1-.7s1.3-.8,2-1.3,1.4-.9,2.1-1.3,1.1-.7,1.2-.8c.6-.2,1.6-.6,2.9-1.2.6-.5,1.5-1.2,2.7-2.2.4-.1.9-.4,1.7-.7.4-.2.9-.6,1.4-1,.5-.4,1.1-.9,1.7-1.4.9-.8,1.6-1.4,2.1-1.8.5-.4.8-.6.8-.7.6-.3,1.2-.8,1.9-1.3.7-.6,1.6-1.2,2.6-2v-.2c-.2,0-.5-.2-1-.7s-.8-.7-1-.7-.9.2-1.7.5c-.2,0-.4.1-.5.2s-.3,0-.5,0c-.3,0-.7,0-1.1-.2s-.8-.2-1.1-.2-.3,0-.4,0-.3,0-.4,0c-.4.2-1,.6-1.9,1.1-.2.1-.7.1-1.3,0-.7,0-1.1,0-1.4.1-.2,0-.3.2-.5.2v.2c-.4.5-.7,1-.9,1.4-.2.6-.4,1-.5,1.1-.2.2-.7.4-1.4.7-.4.2-.8.7-1,1.3l-.5.2v.2c-.6,0-1.2-.2-1.7-.5s-.9-.5-1-.6c0-.2-.2-.2-.3,0s-.5.2-1.1.1c-1.1-.2-1.9-.7-2.2-1.6-.2-.6-.4-1.3-.4-1.9h0s0,0,0,0ZM-64-31c.6.3,1,.6,1.4.8.4.2.6.3.8.4l.2-.2c.8-1.1,1.7-2.9,2.9-5.4,0-.1,0-.3,0-.5s-.3-.5-.8-1.3c-.3,0-.7,0-1.3.2-.3.2-.9.8-1.9,1.8-1.1,1.2-1.7,1.9-2,2.1-.5.2-1.1.6-1.9,1.1.9.2,1.8.5,2.6,1Z"/>
    <path d="M-38.9-35.3c.4,0,1,.3,1.6,1,.6.6.9,1.1,1,1.6,0,0-.4.7-1.1,1.8-.8,1.2-1.1,2-1,2.4,0,0-.4.6-1.1,1.6s-1,2-1,2.9c0,.3,0,.5-.1.6,0,0-.2.1-.2.2s-.2,0-.2.2c-.3.4-.6.7-.8,1s-.4.6-.6.9c0,.2,0,.5-.1.8s-.1.7-.3,1.1c-.1,0-.3.3-.6.7-.2.3-.3.7-.5,1.1s-.4,1-.6,1.7l.4.6.8.2.2.3c.4,0,.6.1.7.1.8,0,1.4-.4,1.7-1.3,0,0,.2,0,.3-.1.1,0,.3,0,.4-.2,0,0,0,0,.1-.1,0,0,.1,0,.2-.2.2-.2.4-.3.5-.3l.5.3c0,.1,0,.3,0,.5s0,.4,0,.7c0,.2-.3.5-.7.7l-.8.5c-.3.3-.7.7-1,1s-.7.7-1.1,1c-.6.4-1.5.7-2.9.7h.1c0,0-.2,0-.2.1h-.2c-.8,0-1.3-.3-1.4-1,0-.3-.1-.6-.1-1,0-.3,0-.6-.1-1,0-.6-.2-1.1-.5-1.3h-.7c-.4-.1-.8,0-1.1.4-.4.4-.7.7-.7,1.1-.2,0-.5.2-.9.2-.5,0-.8,0-.9.1,0,0-.5.3-1.3.9-.4.4-1.1.6-1.9.6h-1.4c-.2,0-.3,0,0,0-.6-.3-.9-.8-1-1.6,0-.2.5-1.2,1.5-3.1,1-1.8,1.5-3.1,1.4-3.8,0-.2.2-.6.5-1.1.4-.6.5-1.2.5-1.8,0-.3,0-.6.2-.7.2-.2.4-.3.4-.4v-.5c-.2-.2-.4-.3-.6-.4-.2-.1-.3-.2-.4-.3-.2-.2-.3-.4-.4-.8,0-.5.2-1.1.7-1.9.2-.4,2-2.2,5.4-5.6,0,0,.1-.2.2-.3s.1-.3.3-.4c0,0,.2,0,.3,0,.1,0,.3,0,.5,0,.8.5,1.2,1.3,1.3,2.2,0,.9-.4,1.7-1.3,2.3-1,.7-1.4,1.5-1.3,2.6,0,.5-.1,1-.4,1.4-.3.4-.5.7-.6.9-.1.2-.2.3-.2.4,0,.3,0,.6-.1,1s-.2.8-.3,1.2c-.4.3-1,.9-1.6,1.7v1.3c0,.3,0,.5,0,.6-.6.6-.9,1.2-.9,1.6l.2.9h.1l.4.2s.2,0,.5-.1c.3-.1.5-.2.7-.2s.3,0,.6.1c.3.1.5.2.6.2h.2c1.2-1.5,2.3-2.5,3.2-2.9,0-.2.2-.3.3-.5.1-.2.2-.4.4-.7.2-.2.4-.4.7-.6.3-.2.6-.6.9-1,.1-.3.2-.7.2-1.3s0-1,.2-1.3c.2-.4.4-.9.8-1.4.2-.2.3-.5.3-1s0-.4,0-.6c0-.3,0-.6,0-1,0-.6,0-1,.2-1.2.2-.3.5-.6.9-1.1l1.3-2.3c.6-1.2,1.1-1.8,1.5-1.8h0Z"/>
    <path d="M-36,6.8l-3.8,4.1c-.2,0-.5.2-.7.3s-.4.3-.6.4c-.4.3-.8.6-1,.8-.2.1-.3.2-.4.4s-.2.2-.3.3l-.3.3c-.4,0-.8.2-1.3.5-.2.2-.4.3-.6.4-.2,0-.3.2-.4.2-.2,0-.4,0-.6.2,0,0-.2.2-.3.2-.1,0-.3.2-.4.2-.1,0-.2.2-.4.3s-.3.2-.4.3c-.2,0-.3.1-.4.2s-.3,0-.5.1c-.3.1-.6.2-.8.4s-.6.2-.9.4c-.6.2-1.2.4-1.8.4-1.6,0-2.7-.1-3.2-.4-.7-.2-1.6-.9-2.6-1.9-.2-.3-.2-1.2-.2-2.6s0-1.2.2-1.3l.5-.5c0-.2.1-.7.3-1.6.1,0,.3-.2.5-.5,0,0,.2-.2.3-.3s.2-.3.4-.4c0-.2.1-.3.2-.5,0-.2.2-.4.2-.6.6-.7,1.1-1.4,1.6-2.1.5-.7,1.1-1.3,1.6-1.8.5-.6,1-1.1,1.5-1.7s1-1.1,1.6-1.6c.5-.5,1.1-1,1.6-1.6s1.1-1,1.6-1.6,1.1-1,1.8-1.5c.6-.5,1.3-1,1.9-1.6.6-.5,1.6-1.2,2.9-2.2,0,0,0-.2.1-.2,0,0,.1-.1.2-.2,0-.2.2-.3.4-.5.2-.1.4-.3.7-.4s.5-.3.7-.5c.4-.6.7-1.4.7-2.5s-.2-1.2-.5-1.6c-.4-.4-.5-.8-.5-1.1,0-1.4.2-2.6.5-3.5.3-.3.5-.7.7-1.1,0,0,0-.5-.1-1.4,0-.4.3-.8.8-1.4.8-.6,1.2-1,1.3-1.1,0-.2.2-.3.3-.5s.2-.4.4-.7c.1-.2.2-.5.4-.8s.3-.6.4-.9c.1,0,.2-.2.4-.3.1,0,.3-.2.4-.4,0-.2.2-.4.2-.5,0-.2.2-.4.4-.7l.5-.3c.3-.7,1.1-1.6,2.3-2.6,1.2-1.1,2.2-1.7,2.9-1.8.2,0,.7,0,1.3-.1.1-.1.2-.2.2-.3.1-.1.2-.2.2-.4.2-.2.4-.4.6-.6s.4-.4.6-.6l1.3-1.1c.2,0,.4.2.7.4,0,.3.2.8.5,1.4,0,0,.2.2.4.4s.6.5,1.1,1c.6.6.9,1.1.9,1.7v.3c0,0-.4.5-.4.5v.9c0,.7-.5,1.1-1.4,1.2-1.3.1-2,.2-2.2.4h0c-.2.2-.4.4-.4.7l-.2.6c0,0-.1,0-.2.2,0,0-.1.2-.2.2-.2.2-.4.4-.5.6,0,.2-.1.4-.2.7,0,.3-.2.5-.2.8l-.3.3c0,0-.2.2-.4.4,0,.2-.1.4-.2.7,0,.3-.2.5-.2.8,0,0-.2.2-.5.5-.1.2-.2.4-.2.7,0,.4.2.6.5.6s.7-.1,1.1-.4c.5-.2.9-.3,1.1-.3h.8c0,.5,0,.8,0,.8-1,.9-2.1,1.8-3.2,2.7-.6.4-1.1.9-1.6,1.4s-1.1,1-1.6,1.5c0,.6-.2,1.4-.5,2.4-.2.4-.6.8-1.3,1.4-.3.2-.4,1.3-.4,3.3s-.2,1-.6,1.9c-.2.6-.4,1-.5,1.3,0,.2-.1.3-.2.4s0,.2-.1.3c-.5.3-.9,1-1.3,2.1.1,1.8-.3,3.5-1.2,5.1,0,.8-.1,1.5-.4,2.2-.2.7-.5,1.3-.9,2h0ZM-37.6,2.2l.5-.4v-.2s0-.1,0-.2,0-.4.2-.8.2-.7.2-1,.2-.7.5-1.3c.4-.6.7-.9.7-1.1,0-.3.2-.6.2-.9s.2-.6.2-.9l.2-1.8c0,0,0-.2.1-.2,0,0,.1-.2.2-.2.2-.2.3-.4.3-.5.4-.6.5-1.3.5-2.1s-.3-1.1-.8-1.1-1.3.9-3.1,2.6c-1.9,1.8-2.9,2.7-3.1,2.6-.4.4-.8.8-1.2,1.2-.4.4-.8.8-1.2,1.2-.4.4-.8.8-1.2,1.2s-.8.8-1.3,1.2l-.5.2c0,0-.2,0-.3.1s-.2,0-.4.1c-.2.2-.5.4-.9.8s-.4.4-.6.5c-.2.1-.3.2-.4.3,0,0-.2.2-.4.4s-.1.2-.2.2-.1.2-.2.2v.6c-.2.2-.3.4-.5.6-.2.2-.3.4-.5.7-.4.5-.8,1-1.3,1.6,0,0-.2.2-.3.4s-.3.4-.4.7c-.5.6-.7,1.3-.7,2.2,0,2.4,1,3.7,3.1,3.7,1.2-.2,2.2-.5,3.1-1,.5-.2.9-.5,1.4-.8s.9-.5,1.4-.8.9-.6,1.3-.8.9-.6,1.3-.9c.8-.5,1.7-1,2.6-1.4h0c0-.1,0-.3,0-.5s0-.3,0-.4c.3-.6.5-1.2.8-1.9.2-.7.3-1.3.3-1.9h0ZM-37.7,7.1h.2s0,0,0-.1h0c0,0,.1-.3.1-.3l-.2.2c0,0-.1.2-.2.2ZM-28.9-27.8h0s-.1.1-.2.2c-.1,0-.3.2-.5.5-.2.2-.5.4-.8.7-.4.3-.8.6-1.2,1-1,.9-1.6,2-1.6,3.4s0,.3-.2.5c0,0-.2.2-.2.3s-.2.3-.2.4l-.2.5c0,.2-.2.3-.2.5-.1.4-.2.8-.2,1.3s0,.3-.2.5c0,.2-.1.4-.1.5,0,.7.6,1.1,1.7,1.1s1.4-.5,2.3-1.6c.9-1,1.3-1.8,1.3-2.5s.1-.6.4-1c.2-.3.4-.6.5-.8v-1.4c0-.1,0-.3.2-.5,0-.2.2-.4.4-.6l.4-.7c0-.3.1-.5.1-.7,0-.3-.2-.8-.5-1.6h-.5c0,0-.2,0-.2,0Z"/>
    <path d="M-3.2-35.3c.4,0,1,.3,1.6,1,.6.6.9,1.1,1,1.6,0,0-.4.7-1.1,1.8-.8,1.2-1.1,2-1,2.4,0,0-.4.6-1.1,1.6s-1,2-1,2.9c0,.3,0,.5-.1.6,0,0-.2.1-.2.2s-.2,0-.2.2c-.3.4-.6.7-.8,1s-.4.6-.6.9c0,.2,0,.5-.1.8s-.1.7-.3,1.1c-.1,0-.3.3-.6.7-.2.3-.3.7-.5,1.1s-.4,1-.6,1.7l.4.6.8.2.2.3c.4,0,.6.1.7.1.8,0,1.4-.4,1.7-1.3,0,0,.2,0,.3-.1.1,0,.3,0,.4-.2,0,0,0,0,.1-.1,0,0,.1,0,.2-.2.2-.2.4-.3.5-.3l.5.3c0,.1,0,.3,0,.5s0,.4,0,.7c0,.2-.3.5-.7.7l-.8.5c-.3.3-.7.7-1,1s-.7.7-1.1,1c-.6.4-1.5.7-2.9.7h.1c0,0-.2,0-.2.1h-.2c-.8,0-1.3-.3-1.4-1,0-.3-.1-.6-.1-1s0-.6-.1-1c0-.6-.2-1.1-.5-1.3h-.7c-.4-.1-.8,0-1.1.4-.4.4-.7.7-.7,1.1-.2,0-.5.2-.9.2-.5,0-.8,0-.9.1,0,0-.5.3-1.3.9-.4.4-1.1.6-1.9.6h-1.4c-.2,0-.3,0,0,0-.6-.3-.9-.8-1-1.6,0-.2.5-1.2,1.5-3.1,1-1.8,1.5-3.1,1.4-3.8,0-.2.2-.6.5-1.1.4-.6.5-1.2.5-1.8,0-.3,0-.6.2-.7.2-.2.4-.3.4-.4v-.5c-.2-.2-.4-.3-.6-.4s-.3-.2-.4-.3c-.2-.2-.3-.4-.4-.8,0-.5.2-1.1.7-1.9.2-.4,2-2.2,5.4-5.6,0,0,.1-.2.2-.3,0-.1.1-.3.3-.4,0,0,.2,0,.3,0,.1,0,.3,0,.5,0,.8.5,1.2,1.3,1.3,2.2,0,.9-.4,1.7-1.3,2.3-1,.7-1.4,1.5-1.3,2.6,0,.5-.1,1-.4,1.4-.3.4-.5.7-.6.9s-.2.3-.2.4c0,.3,0,.6-.1,1s-.2.8-.3,1.2c-.4.3-1,.9-1.6,1.7v1.3c0,.3,0,.5,0,.6-.6.6-.9,1.2-.9,1.6l.2.9h.1l.4.2s.2,0,.5-.1c.3-.1.5-.2.7-.2s.3,0,.6.1c.3.1.5.2.6.2h.2c1.2-1.5,2.3-2.5,3.2-2.9,0-.2.2-.3.3-.5.1-.2.2-.4.4-.7.2-.2.4-.4.7-.6.3-.2.6-.6.9-1,.1-.3.2-.7.2-1.3s0-1,.2-1.3c.2-.4.4-.9.8-1.4.2-.2.3-.5.3-1s0-.4,0-.6c0-.3,0-.6,0-1,0-.6,0-1,.2-1.2.2-.3.5-.6.9-1.1l1.3-2.3c.6-1.2,1.1-1.8,1.5-1.8h0Z"/>
    <path d="M12.1-35.1h0c0,0,.9.3.9.3,1.2.2,2,.5,2.3.7.2.2.4.9.5,2.2,0,.2,0,.3.2.5.2.2.2.3.2.5s0,.3-.2.5c-.2.2-.3.4-.5.6-.2.2-.4.4-.6.5-.2.1-.4.2-.5.2-.2,0-.4,0-.5-.2,0,0-.2-.2-.3-.2-.1,0-.2-.1-.3-.2,0,0-.2-.2-.3-.2s-.2-.2-.3-.2c-.2-.1-.4-.2-.5-.2-.3,0-.9.3-1.8.9.3.8.5,1.6.5,2.4,0,0,0,.2.1.2s0,.2,0,.2c0,.1.2.3.2.5,0,.2,0,.4-.2.5-.1.2-.2.4-.2.5,0,.3,0,.5,0,.7v.5c0,.2,0,.3,0,.4.1.3.2.7.4,1.3,0,.3,0,.6-.3.8-.2.2-.3.3-.4.5,0,.4-.1,1.1-.4,1.9-.4.8-1.5,2-3.1,3.7v.3s-.2.1-.4.3c-.2.2-.4.3-.4.3v.3c-1.5,1.6-2.7,2.5-3.6,2.5s-.3,0-.6-.2c-.3,0-.5-.1-.6-.1-.2,0-.4,0-.8.3-.3.2-.6.3-.8.3s-.5,0-.9-.2c-.4-.1-.6-.2-.8-.2s-.4,0-.6,0-.4,0-.7,0h-1.1c-.1,0-.3,0-.6,0h-.5c0-.2-.2-.3-.2-.5s-.2-.4-.2-.7c-.2-.4-.3-1-.5-1.7.2-.3.3-1,.3-2.1,0,0,.6-1.1,1.9-2.9h.2c.2,0,.4,0,.6.1.2,0,.4,0,.7.1.5,0,.8.2.8.4.2.4.4.7.5.7.2,0,.4,0,.6.2,0,0,.1.2.2.4,0,0,0,.2.1.2s0,.2.1.2c.2,0,.5,0,.9.2,0,0,.1.1.3.3.1.2.4.4.7.7.3.4.9.6,1.8.6,2.3,0,3.8-1.5,4.5-4.4,0-.3.3-.6.6-1,.3-.5.5-.8.4-1.1-.2-.2-.5-1.2-.9-3,0-.2,0-.4-.1-.6s-.1-.5-.2-.8-.1-.6-.2-.9-.1-.6-.2-.9c0-.4.1-1.3.2-2.6,0-.6.1-1.1.7-1.4.2-.1.4-.2.5-.3.1,0,.2-.2.3-.3.2-.2.4-.3.4-.4l.2-.4c0,0,.1-.2.2-.5,0-.1.3-.4.9-.7.6-.4.9-.6,1-.6h0Z"/>
    <path d="M32.1-44.3h0c.7,0,1.1.3,1.1.8s-.4,1.6-1.3,3.3c-.8,1.7-1.4,2.6-1.8,2.8l-1.8,2.5c.1,0,0,.1-.1.4s-.5.5-.7.8-.5.6-.7.8-.2.4-.1.4c.1,0,.4,0,.9,0,.5,0,1,0,1.6,0s1.1,0,1.6,0,.8,0,1,.1v.8c0,.1-.2.5-.7,1-.2.3-.4.6-.7.9s-.6.7-.9,1.2c-.3.1-1,.2-2,.2s-.5,0-1-.1c-.4,0-.7,0-.9,0s-.3.3-.3.5c0,.3-.1.5-.2.5s-.1.1,0,.2.1,0,0,.2c-.4.3-.7.6-.9.8-.1.2-.3.5-.4.7-.1.2-.2.4-.3.7-.1.2-.3.5-.6.8,0,.2-.2.2-.3,0-.1-.2-.2-.3-.2-.3-.1.2-.2.6-.4,1.2-.2.6-.4,1-.5,1.1,0,0-.3.4-.8,1-.4.4-.5.8-.5,1.2,0,.2,0,.4,0,.5v.4c0,.3-.2.6-.5,1-.4.4-.6.8-.6,1.2,0,.6.3,1,1,1.1.3,0,.6.1.9.2s.6,0,.9,0c.7-1.2,1.6-1.8,2.6-1.8s1,.2,1,.7c0,.8-.6,1.4-1.8,1.9-.2,0-.4.2-.7.2s-.5.2-.7.2c-.2,0-.5.2-.7.2s-.5.2-.7.2c-.2.1-.5.5-1,1.2-.3.4-.8.7-1.4.7-1.2,0-2.1-.2-2.5-.6-.4-.4-.7-1.1-.7-2.3s.1-2.7.3-3.5c.2-.4.5-.8,1-1.3.5-.5.9-1.1,1.1-1.7.2-.3.4-1,.5-2.1,0-.4.1-.8.3-1.2.2-.4.3-.9.5-1.3s.3-.9.5-1.3.3-.8.4-1.1c0,0,0-.2-.4-.5-.3-.2-.6-.5-1-.8s-.7-.6-1-.8-.4-.5-.3-.6c0-.1.3-.3.8-.5s1-.5,1.6-.7,1.3-.5,2.2-.8c.6-.4,1-.9,1.1-1.4,0,0,.2-.4.4-.9s.6-1.1,1.3-1.6c.3-.2.6-.7,1.1-1.3.1-.2.2-.4.4-.7s.3-.6.5-1c.2-.3.3-.6.5-.9s.2-.4.3-.5c.2,0,.4-.2.6-.4,0,0,.2-.2.3-.3.1-.1.3-.2.5-.3.1-.1.2-.3.4-.4,0-.1.2-.3.4-.5.2-.2.4-.4.6-.7.5-.6,1.1-.9,1.7-.9h0Z"/>
  </g>
  <path d="M88.3,4.5c-.6,1.6-6,9.6-1.1,10.8,1,.3,9.9-7.5,10.2-9.7,0,0,0,0,.1,0l3.4,1.3c.2,0,.4.3.4.6.9,7.8-1.7,14.6,1.9,22,0,.2,0,.4-.1.5-5.1,3.6-14-9.8-17.7-3.2-4.4,7.8,9,8.9,12.7,10.8,10.4,5.3,14.9,15.1,19.3,25.2l8.1-2.8c4.6-5.7-12.1-12-8-15.2,6.5-.9,13.3-2,19.9-1.5,20.6,1.6,3.8,6.1-.3,14.5l3,1.9c3-.6,8.4-10.5,12.9-7.3.8.9,0,22.2-.5,23.9-2.4,9.4-10.5-3.9-13.6-2.4l-.9,2.7c2.4,1.8,3.9,4.6,6,6.6,2.5,2.4,6.5,1.1,4.7,5.9-3.4,3.9-6.5.7-11.3,1.2-4,.4-14,5.7-14-1.5,0-4,6.5-7.7,3.8-12.8-12-5.2-10,3.5-14,9.7-1.5,2.3-4.3,8.4-10,11.9-5.8,3.5-13.1,3.7-13.4,6.2-.3,1.9.4,3.6.4,3.6.1.3.2.6.3.7l3.3,2.8c.4.3,1,.3,1.4,0l10.3-8.4c.6-.5,1.4-.1,1.5.6l2.8,22.7c-2.2.3-3.8,3.1-6.1,2.9-3.8-.4-13.8-16.5-6.3,5.8.2.7-.3,1.5-1,1.5l-23.7.5c-.8,0-1.4-.6-1.4-1.4l.8-11.6c-6.2,1.5-8,8.7-14.7,7.1l-2.1-2.8c4.3-8-.7-16.9,3.4-24.7l2.1-.8c4.1,3.6,6.1,7.2,12.4,6.8,2.7-.2,4.6-3.4,3-5.9-.4-.7-12.3-4.5-15.1-6.3-.9-.5-7.5-5.6-7.8-6-1.3-1.9-1.9-7.6-3.1-8.9-2.8-3-12.7-1.7-16.5-.7-.1,4.5,3.5,4.4,6,6.9.2.2.4.6.3,1v1.6c-.1.4-.4.8-.8,1-4.5,2.2-8.8.2-13.5.8-3.3.4-10.6,5.1-13.3,2.8-4.6-3.9,7.4-9.2,6.4-13.5-7.5-3.2-10.7,3.2-16.9,3.5-.8,0-1.5-.6-1.5-1.4v-19.3c0-.6.2-1.1.6-1.4l.9-.7c.3-.2.7-.3,1.1-.2l11.9,3.3c.4.1.8,0,1.1-.3l1.7-1.7c.2-.2.3-.6.2-.9-1.2-4.1-8.8-10.8-4.9-14.2,3.3-2.9,7.3,1.2,10.2,1.8,6.4,1.2,16.2-2.8,18.5,5.2.1.4-.1.7-.5.8-3.1.6-11.1,7.4-10,8.9,22.8,4.7,13.6-4,20.8-15.2,4.9-7.6,14.4-10.2,20.8-16l-3.2-6.8c-2.1-.5-7.4,6-7.7,8.1l-3.1.2-4.2-23.8c4.5-7.9,13.5,6.3,16.4,2.7l.5-1.7-7.5-10.6c-.3-.5,0-1.1.6-1.2l23.2-1.1c1.9,1.1.7,3,.2,4.5h0ZM85.6,62.2c.1.2,2.8.1,4,1.1s2.4,3.2,3.4,3.4c2.3.6,15.7-1,15.8-4.8.2-6.7-13.2-24.3-22.4-20.5-1.6.5-1.5,20-.8,20.8h0ZM76.5,45.2l-2.2-2.3c-.5-.5-1.3-.7-2-.3-8.3,4.6-13.4,13.5-15.4,22.7-.1.6.3,1.2.9,1.2l16.2,1.8c.6,0,1.1-.1,1.5-.6l.5-.8c1.3-1.8,2.8-3.4,4.6-4.7h0l-4.3-17.2s0,0,0,0ZM106.8,84.1c5.3-10.4-6.9-12.2-14.5-11.5-4.3,7.3-5,15.2-1.2,22.9,4.5,2.4,14.1-8.1,15.8-11.4h0ZM79.6,94.9c-.1-3.2,3.9-15.4,1.8-17.5-5.4-5.5-18.3-1.8-24.4,1.8,3.9,10.5,11.6,15.3,22.5,15.7h0Z"/>
</svg>