<?xml version="1.0" encoding="UTF-8"?>
<svg id="Layer_1" data-name="Layer 1" xmlns="http://www.w3.org/2000/svg" viewBox="0 0 428.54 207.56">
  <g>
    <path d="M65.66,10.5c-.2,1-.62,2.42-1.26,4.26-.12.16-.26.37-.42.63-.16.26-.34.55-.54.87-.28,1.12-.92,2.9-1.92,5.34-.12.16-.26.36-.42.6s-.34.52-.54.84v.42c0,.16-.04.34-.12.54-.04.44-.38,1.22-1.02,2.34-.32.56-.57,1.03-.75,1.41s-.31.71-.39.99v.6c0,.24-.04.52-.12.84-.08.4-.24.78-.48,1.14-.16.28-.29.51-.39.69s-.19.31-.27.39l-.54,1.62c-.16.76-.34,1.32-.54,1.68-.12.32-.28.69-.48,1.11-.2.42-.44.89-.72,1.41-.44.92-.81,1.67-1.11,2.25s-.51,1.01-.63,1.29c-.64,1.52-1.04,2.7-1.2,3.54-.12,1.04-.14,1.7-.06,1.98.04.04.1.08.18.12.12.08.18.18.18.3h.18c.08,0,.15,0,.21.03.06.02.13.03.21.03.08.08.18.12.3.12.48,0,1.02-.48,1.62-1.44.24-.32.46-.66.66-1.02s.4-.7.6-1.02c.4-.4.87-.9,1.41-1.5s1.15-1.32,1.83-2.16c.16-.32.35-.7.57-1.14s.49-.94.81-1.5c.2-.16.42-.36.66-.6s.52-.52.84-.84c.16-.28.34-.6.54-.96s.46-.76.78-1.2c.12-.12.34-.28.66-.48.16-.08.28-.16.36-.24l.18-.18c.08-.4.22-.82.42-1.26.28-.2.76-.6,1.44-1.2.12-.2.26-.46.42-.78.16-.32.34-.7.54-1.14.12-.16.29-.3.51-.42s.49-.26.81-.42c.56-.28.96-.5,1.2-.66l.75-.75c.3-.3.63-.65.99-1.05.6-.32,1.26-.82,1.98-1.5.12-.28.27-.62.45-1.02s.41-.86.69-1.38c.6-.28,1.32-.82,2.16-1.62.12-.2.27-.44.45-.72.18-.28.39-.62.63-1.02,1.48-1.72,3.54-2.9,6.18-3.54,0,.04.08.14.24.3.16.16.18.42.06.78-.24.56-.64,1.36-1.2,2.4-.08.6-.32,1.5-.72,2.7-.16.16-.34.37-.54.63-.2.26-.44.55-.72.87-.28.56-.64,1.23-1.08,2.01s-.98,1.69-1.62,2.73c-.2.2-.43.46-.69.78-.26.32-.55.7-.87,1.14-.52.96-.96,2.38-1.32,4.26-.24,1.4-.44,2.47-.6,3.21-.16.74-.26,1.15-.3,1.23-.08.4-.25.91-.51,1.53s-.63,1.35-1.11,2.19c-.4.8-.73,1.5-.99,2.1-.26.6-.43,1.14-.51,1.62-.04.4-.09.89-.15,1.47-.06.58-.17,1.27-.33,2.07-.12.76-.4,1.5-.84,2.22-.24.4-.44.73-.6.99-.16.26-.28.49-.36.69-.12.44-.24,1.06-.36,1.86-.04.44-.07.77-.09.99s-.03.37-.03.45.14.3.42.66c.24.32.34.62.3.9-.04.32-.08.55-.12.69s-.06.19-.06.15c-3.88,1.64-6.1,2.46-6.66,2.46-.2,0-.38-.08-.54-.24-.08-.08-.22-.18-.42-.3.08-.08.12-.14.12-.18s0-.1.03-.18c.02-.08.03-.16.03-.24v-.48c0-.12.04-.22.12-.3.16-.08.34-.18.54-.3s.4-.28.6-.48c.96-.72,1.73-1.42,2.31-2.1s.99-1.32,1.23-1.92c.08-.16.15-.36.21-.6.06-.24.13-.52.21-.84.08-.84.2-2.02.36-3.54.12-.6.44-1.26.96-1.98.12-.56.27-1.2.45-1.92.18-.72.43-1.54.75-2.46.24-.28.5-.61.78-.99s.58-.83.9-1.35c.2-.44.38-.97.54-1.59s.3-1.33.42-2.13c.2-.92.36-1.7.48-2.34s.22-1.12.3-1.44c.44-.8.88-1.64,1.32-2.52.44-.88.88-1.84,1.32-2.88,0-.16-.08-.34-.24-.54-.08-.16-.14-.27-.18-.33s-.06-.11-.06-.15c-.56.08-1.34.32-2.34.72-.08.16-.16.36-.24.6-.08.24-.22.52-.42.84-.24.16-.53.35-.87.57-.34.22-.73.49-1.17.81-.28.52-.7,1.16-1.26,1.92-.2.08-.48.26-.84.54-.32.56-.72,1.21-1.2,1.95-.48.74-1.06,1.61-1.74,2.61-.32.28-.7.63-1.14,1.05-.44.42-.94.95-1.5,1.59-.36.72-1.02,1.74-1.98,3.06-.12.08-.28.17-.48.27-.2.1-.42.25-.66.45-.08.16-.16.37-.24.63-.08.26-.22.55-.42.87-.4.24-1.08.78-2.04,1.62-.2.32-.45.72-.75,1.2s-.67,1.06-1.11,1.74c-.36.32-.79.73-1.29,1.23s-1.07,1.11-1.71,1.83c-.92,1.08-1.56,2.06-1.92,2.94-.08.2-.15.42-.21.66-.06.24-.13.5-.21.78-.16,1-.86,1.96-2.1,2.88-.16.16-1.22.8-3.18,1.92l-.3.48h-1.02c0-.24-.08-.6-.24-1.08-.08-.2-.12-.4-.12-.6v-.48c.16-.28.34-.61.54-.99s.42-.85.66-1.41c.4-1.48,1.22-3.8,2.46-6.96.52-.76,1.18-1.9,1.98-3.42.24-1.12.72-2.86,1.44-5.22.72-1.12,1.56-2.92,2.52-5.4.12-.44.04-.8-.24-1.08-.24-.28-.5-.54-.78-.78-.32,0-.72.08-1.2.24-.4.2-1,.82-1.8,1.86-.84,1.08-1.44,1.74-1.8,1.98-.24.16-.55.36-.93.6-.38.24-.81.52-1.29.84-.24.32-.56.72-.96,1.2-.4.48-.88,1.04-1.44,1.68l-7.26,5.58c-.24.28-.54.59-.9.93s-.8.73-1.32,1.17c-.4.16-.88.38-1.44.66-.56.28-1.22.64-1.98,1.08-.24.4-.76.94-1.56,1.62-.44.16-.96.38-1.56.66s-1.3.64-2.1,1.08c-.24.36-.72.84-1.44,1.44-.2.04-.44.1-.72.18-.28.08-.6.16-.96.24-.52.4-1.12.78-1.8,1.14-.68.36-1.44.74-2.28,1.14h-.3c-.08-.04-.18-.06-.3-.06-.28,0-.68.18-1.2.54-.32.2-.59.35-.81.45-.22.1-.37.17-.45.21-.36.08-.92.14-1.68.18-.88.56-2.22,1.22-4.02,1.98-.8.2-1.72.3-2.76.3-3.52,0-5.16-.68-4.92-2.04.12-.36.48-.76,1.08-1.2.48-.32.85-.55,1.11-.69s.41-.23.45-.27.14-.17.3-.39c.16-.22.4-.55.72-.99.44-.6.88-.92,1.32-.96.08-.04.26-.06.54-.06-.08,0,.52.18,1.8.54.84.24,2.22.36,4.14.36,2.6,0,4.5-.2,5.7-.6.24-.16.54-.33.9-.51.36-.18.78-.41,1.26-.69.6-.12,1.52-.36,2.76-.72.2-.12.4-.26.6-.42s.46-.34.78-.54c.6-.16,1.54-.56,2.82-1.2.48-.48,1.36-1.2,2.64-2.16.44-.16.94-.4,1.5-.72.84-.52,1.8-1.3,2.88-2.34.88-.8,1.54-1.4,1.98-1.8.44-.4.7-.64.78-.72.52-.32,1.12-.76,1.8-1.32s1.48-1.24,2.4-2.04c.32-.44.74-.98,1.26-1.62.52-.64,1.12-1.38,1.8-2.22.48-.28,1.14-.82,1.98-1.62.4-.72.98-1.7,1.74-2.94.72-.64,1.64-1.68,2.76-3.12.12-.36.24-.76.36-1.2l.69-.69c.26-.26.55-.59.87-.99.2-.32.44-.75.72-1.29.28-.54.62-1.15,1.02-1.83.52-.36,1.2-1.06,2.04-2.1.2-.32.42-1.24.66-2.76.08-.32.16-.62.24-.9.08-.28.22-.56.42-.84.4-.6.62-1.02.66-1.26.08-.4.18-.84.3-1.32s.28-1.02.48-1.62h.24c.16-.08.74-.56,1.74-1.44,1.04-.92,1.58-1.42,1.62-1.5.04-.16.16-.36.36-.6.16-.16.94-.5,2.34-1.02,0,0,1.08.72,1.08.72Z"/>
    <path d="M91.94,36.18h.06c.2.08.38.14.54.18s.3.08.42.12c.24.08.42.2.54.36.08.12.16.32.24.6.04.12.06.28.06.48,0,.16.02.36.06.6.12,1.28.04,2.06-.24,2.34-.16.2-.29.39-.39.57s-.19.33-.27.45c-.08.12-.14.22-.18.3-.04.08-.08.14-.12.18.08.6-.08,1.24-.48,1.92-.32.64-.72,1.2-1.2,1.68-.04.08-.07.18-.09.3s-.07.26-.15.42c-.08.28-.2.56-.36.84-.04.04-.12.13-.24.27-.12.14-.34.31-.66.51-.36.24-.54.54-.54.9.04.08.06.16.06.24s.02.16.06.24c.08.24.14.44.18.6,0,.2-.06.44-.18.72-.04.12-.08.24-.12.36s-.1.26-.18.42-.14.3-.18.42-.08.26-.12.42-.07.29-.09.39-.03.19-.03.27c.08.64.36,1.16.84,1.56.56.44,1.12.66,1.68.66.2,0,.46-.1.78-.3.16-.08.29-.14.39-.18s.19-.06.27-.06c.04,0,.34.22.9.66,0,.32-.06.8-.18,1.44-.12.2-.34.36-.66.48-.2.08-.37.16-.51.24s-.25.12-.33.12c-.04.08-.1.17-.18.27-.08.1-.18.25-.3.45-.16.28-.42.48-.78.6-.68.48-1.54.72-2.58.72-.72,0-1.46-.24-2.22-.72-.8-.48-1.4-.72-1.8-.72-.8,0-2,.3-3.6.9l-.3.3-.6.12c-2.72.2-4.18-.7-4.38-2.7.16-.32.3-1.02.42-2.1-.08-.44.08-.94.48-1.5.52-.76.8-1.22.84-1.38.04-.2.1-.45.18-.75s.16-.61.24-.93c.08-.32.19-.67.33-1.05s.29-.79.45-1.23c.08-.08.17-.17.27-.27.1-.1.19-.23.27-.39.08-.12.17-.25.27-.39s.23-.31.39-.51c.04-.08.1-.24.18-.48.04-.08.08-.17.12-.27.04-.1.08-.23.12-.39.08-.12.24-.28.48-.48.08-.08.18-.16.3-.24s.24-.16.36-.24.24-.15.36-.21.22-.13.3-.21c.2-.12.3-.2.3-.24.44-.88,1.12-1.78,2.04-2.7,1.16-1.12,2.08-1.64,2.76-1.56.04,0,.46-.1,1.26-.3.76-.2,1.16-.32,1.2-.36.2-.16.42-.34.66-.54.24-.2.5-.4.78-.6.52-.4,1.12-.94,1.8-1.62h0ZM80.66,51h.06v.3s-.06.14-.06.3c-.16.08-.32.18-.48.3s-.32.28-.48.48c-.32.32-.62.68-.9,1.08-.16.2-.29.4-.39.6-.1.2-.19.4-.27.6-.12.44-.16.82-.12,1.14,0,.08.1.26.3.54.08.08.17.18.27.3s.19.22.27.3c.08.08.18.16.3.24s.24.16.36.24c.24.12.42.18.54.18,1.24,0,2.04-.24,2.4-.72.08-.08.14-.18.18-.3s.1-.22.18-.3l.36-.54c.2-.08.4-.18.6-.3s.4-.24.6-.36c.4-.24.7-.58.9-1.02.08-.16.16-.46.24-.9.04-.16.06-.32.06-.48v-1.56c0-.28.04-.54.12-.78,0-.04.08-.21.24-.51.16-.3.4-.77.72-1.41.36-.76.5-1.66.42-2.7s-.54-1.56-1.38-1.56c-.76,0-1.82.92-3.18,2.76-1.28,1.76-1.9,3.12-1.86,4.08Z"/>
    <path d="M129.26.06v-.06c1.24,0,2.32.66,3.24,1.98.36.12.72.22,1.08.3.48.12.72.34.72.66,0,.2-.06.42-.18.66.04.08.13.24.27.48s.31.52.51.84c.24.36.36.96.36,1.8v.48c-.04.12-.06.26-.06.42,0,.12-.02.26-.06.42-1.8,1.04-3.64,1.54-5.52,1.5-.24,0-.6.12-1.08.36l-.12.06c-.16,0-.42-.06-.78-.18s-.64-.18-.84-.18c-.44,0-1.74.32-3.9.96-2.28.64-3.58,1.08-3.9,1.32-.24.16-.44.3-.6.42l-.9.54c-.28.08-.55.15-.81.21-.26.06-.53.13-.81.21-.64.2-1.12.46-1.44.78v.24c-.32.24-.72.74-1.2,1.5-.44.68-.7,1.24-.78,1.68-.04.4-.32.78-.84,1.14-.56.44-.86.76-.9.96-.08.28-.17.57-.27.87-.1.3-.21.61-.33.93-.28.72-.6,1.46-.96,2.22-.12.08-.24.2-.36.36-.12.08-.3.24-.54.48,0,.28-.02.52-.06.72-.04.12-.08.26-.12.42s-.08.34-.12.54c-.44.32-.92.8-1.44,1.44,0,.56-.12,1.34-.36,2.34-.12.12-.27.3-.45.54-.18.24-.37.56-.57.96v.54c-.04.08-.06.2-.06.36,0,.12-.02.26-.06.42-.04.12-.14.3-.3.54-.08.08-.16.19-.24.33-.08.14-.16.29-.24.45-.08.32-.19.72-.33,1.2s-.31,1.06-.51,1.74l-.12.24-.36.36c-.04.16-.08.33-.12.51-.04.18-.1.41-.18.69-.2.48-.38.78-.54.9-.04.08-.06.18-.06.3,0,.08-.02.16-.06.24-.08.24-.14.44-.18.6-.04.12-.32.44-.84.96-.2.2-.3.72-.3,1.56,0,.56-.36,1.38-1.08,2.46l-.3.12c-.04.32-.14.74-.3,1.26-.16.52-.4,1.18-.72,1.98l-.3.18v.48c0,.16-.02.36-.06.6-.08.52-.28,1.1-.6,1.74-.36.68-.54,1.22-.54,1.62,0,.8.26,1.2.78,1.2.16,0,.42-.06.78-.18s.64-.18.84-.18c.04,0,.36.1.96.3.04.2.1.5.18.9-.04.16-.68.7-1.92,1.62-.28.2-.53.39-.75.57s-.41.33-.57.45c-.16.12-.28.21-.36.27s-.14.11-.18.15c-.08.04-.18.06-.3.06s-.26.02-.42.06c-.32.08-.68.14-1.08.18-.32.28-1.04.6-2.16.96h-.36c-.08-.04-.16-.06-.24-.06-.12,0-.22-.02-.3-.06-.08-.4-.14-.66-.18-.78-.04-.08-.08-.16-.12-.24,0-.32.14-.64.42-.96.24-.28.4-.54.48-.78.16-.72.58-1.88,1.26-3.48.2-.16.56-.56,1.08-1.2,0-.16,0-.31.03-.45.02-.14.05-.31.09-.51.04-.36.1-.78.18-1.26.24-.2.52-.54.84-1.02l1.44-4.2c0-.36.28-.86.84-1.5.56-.56.84-1.18.84-1.86,0-.28.14-.68.42-1.2.12-.24.21-.43.27-.57s.11-.25.15-.33c.04-.16.09-.37.15-.63.06-.26.13-.61.21-1.05.08-.16.2-.32.36-.48.08-.08.16-.17.24-.27.08-.1.16-.23.24-.39.04-.4.16-.94.36-1.62.08-.08.16-.22.24-.42.04-.12.14-.3.3-.54.12-.68.36-1.74.72-3.18.08-.12.16-.25.24-.39.08-.14.16-.31.24-.51.16-.36.34-.78.54-1.26.04-.08.06-.22.06-.42,0-.28.02-.5.06-.66.36-.36.88-1,1.56-1.92.04-.16.09-.38.15-.66.06-.28.13-.64.21-1.08.08-.16.18-.33.3-.51s.24-.37.36-.57c.16-.4.4-.88.72-1.44,0-.2.03-.46.09-.78.06-.32.13-.74.21-1.26.08-.24.38-.58.9-1.02.44-.4.72-.7.84-.9.04-.16.1-.44.18-.84.04-.16.08-.34.12-.54s.1-.4.18-.6c.08-.04.17-.1.27-.18s.21-.16.33-.24c.16-.16.4-.34.72-.54.08-.08.16-.19.24-.33.08-.14.16-.29.24-.45.08-.16.17-.32.27-.48s.23-.34.39-.54c.24-.16.52-.36.84-.6.32-.24.68-.56,1.08-.96.08-.52.38-1.16.9-1.92.08-.04.18-.07.3-.09s.24-.07.36-.15c.28-.08.54-.2.78-.36.04-.24.16-.6.36-1.08.04.04.08.04.12,0s.04-.08,0-.12c.08-.08.18-.17.3-.27s.26-.21.42-.33l.39-.39c.14-.14.29-.31.45-.51l.96-1.14c.2-.12.7-.22,1.5-.3.6-.08,1.02-.36,1.26-.84h.24c.76-1.12,1.8-2.04,3.12-2.76s2.64-1.08,3.96-1.08h0Z"/>
    <path d="M121.28,26.82h-.06c.72,0,1.08.28,1.08.84,0,.52-.42,1.62-1.26,3.3-.8,1.68-1.4,2.6-1.8,2.76l-1.8,2.46c.12,0,.07.13-.15.39s-.46.54-.72.84-.49.57-.69.81c-.2.24-.24.38-.12.42.12,0,.42.02.9.06s1.01.07,1.59.09c.58.02,1.13.05,1.65.09.52.04.84.08.96.12v.54l.06.24c-.04.12-.28.46-.72,1.02-.2.28-.44.59-.72.93s-.58.73-.9,1.17c-.32.12-1,.18-2.04.18-.2,0-.52-.04-.96-.12-.44-.08-.74-.08-.9,0s-.26.26-.3.54c-.04.28-.12.46-.24.54-.12.08-.12.13,0,.15s.14.07.06.15c-.44.32-.73.6-.87.84s-.26.47-.36.69c-.1.22-.2.44-.3.66-.1.22-.29.47-.57.75-.08.2-.17.18-.27-.06s-.17-.34-.21-.3c-.12.24-.24.64-.36,1.2-.2.6-.36.98-.48,1.14-.04.04-.32.38-.84,1.02-.36.44-.54.84-.54,1.2.04.2.06.38.06.54v.36c0,.28-.18.6-.54.96-.4.36-.6.76-.6,1.2,0,.64.32,1.02.96,1.14.32.08.63.13.93.15s.61.05.93.09c.72-1.2,1.6-1.8,2.64-1.8.64,0,.96.22.96.66,0,.8-.6,1.44-1.8,1.92-.2.08-.42.16-.66.24-.24.08-.46.16-.66.24-.24.08-.48.16-.72.24s-.46.16-.66.24c-.2.12-.54.52-1.02,1.2-.32.44-.78.66-1.38.66-1.24,0-2.06-.2-2.46-.6-.44-.36-.66-1.12-.66-2.28,0-1.52.1-2.68.3-3.48.2-.4.52-.82.96-1.26.48-.48.86-1.06,1.14-1.74.2-.32.38-1.02.54-2.1.04-.36.14-.76.3-1.2.16-.44.32-.89.48-1.35s.32-.9.48-1.32.28-.79.36-1.11c.04-.08-.08-.24-.36-.48-.28-.24-.6-.5-.96-.78s-.69-.56-.99-.84c-.3-.28-.41-.48-.33-.6.04-.12.31-.3.81-.54s1.03-.46,1.59-.66,1.3-.46,2.22-.78c.6-.4.98-.86,1.14-1.38.08-.08.22-.38.42-.9s.64-1.06,1.32-1.62c.28-.24.64-.66,1.08-1.26.12-.16.25-.39.39-.69s.29-.62.45-.96c.16-.34.31-.64.45-.9s.25-.41.33-.45c.16-.04.36-.18.6-.42.08-.08.19-.17.33-.27s.29-.19.45-.27c.12-.12.24-.26.36-.42.08-.12.21-.27.39-.45s.37-.41.57-.69c.52-.6,1.1-.9,1.74-.9h0Z"/>
    <path d="M132.92,39.3c.4-.28.64-.58.72-.9.16-.08.46-.16.9-.24.48,0,.78-.04.9-.12.08,0,.52-.3,1.32-.9.44-.4,1.08-.6,1.92-.6h1.26c.24,0,.28.02.12.06.6.32.94.84,1.02,1.56,0,.2-.5,1.22-1.5,3.06-1,1.8-1.46,3.1-1.38,3.9,0,.2-.16.58-.48,1.14-.36.56-.52,1.14-.48,1.74,0,.36-.1.62-.3.78-.24.2-.36.34-.36.42v.42c.2.16.38.29.54.39.16.1.28.19.36.27.24.24.4.56.48.96.08.56-.16,1.2-.72,1.92-.76.68-1.56,1.42-2.4,2.22-.84.8-1.72,1.64-2.64,2.52-.04.08-.1.17-.18.27-.08.1-.16.23-.24.39l-.36.12c-.24,0-.38.02-.42.06-.76-.52-1.18-1.28-1.26-2.28-.04-.88.34-1.5,1.14-1.86.84-.4,1.2-1.12,1.08-2.16-.04-.44.1-.92.42-1.44.24-.36.42-.64.54-.84s.2-.32.24-.36c.04-.52.22-1.26.54-2.22.44-.28.98-.84,1.62-1.68.04-.08.05-.24.03-.48-.02-.24-.05-.52-.09-.84v-.6c.64-.64.94-1.18.9-1.62,0-.24-.08-.54-.24-.9h-.06l-.42-.12s-.22.04-.54.12c-.24.12-.44.16-.6.12-.04,0-.22-.04-.54-.12-.32-.12-.54-.18-.66-.18l-.3.06c-1.24,1.48-2.3,2.44-3.18,2.88-.08.2-.18.48-.3.84-.12.44-.24.72-.36.84-.28.12-.7.56-1.26,1.32-.08.24-.18.55-.3.93s-.28.85-.48,1.41c-.16.44-.44.9-.84,1.38-.2.2-.3.52-.3.96,0,.16,0,.37.03.63.02.26.05.57.09.93.04.32.05.58.03.78-.02.2-.05.38-.09.54l-.39.39c-.18.18-.37.39-.57.63l-1.26,2.34c-.68,1.2-1.18,1.8-1.5,1.8-1.08-.24-1.56-1.26-1.44-3.06.12-.24.24-.55.36-.93s.26-.83.42-1.35c-.04-.28-.07-.61-.09-.99s-.01-.85.03-1.41c0-.28.06-.58.18-.9l.3-.18c.16-.2.32-.42.48-.66s.32-.48.48-.72c.28-.48.46-.94.54-1.38-.04-.2-.08-.48-.12-.84s-.06-.76-.06-1.2v-.18l.36-.48c.04-.4.08-.82.12-1.26,0-.12.16-.44.48-.96.4-.52.62-1.24.66-2.16.08-.48.34-.98.78-1.5.64-.76.98-1.26,1.02-1.5.08-.36.26-.86.54-1.5.24-.16.54-.46.9-.9.04-.08.1-.24.18-.48l.12-.48c.24-.24.5-.58.78-1.02.08-.44.26-1.08.54-1.92.2-.16.41-.35.63-.57s.49-.49.81-.81c.08-.48.26-1.1.54-1.86.08-.08.18-.21.3-.39.12-.18.26-.37.42-.57.04-.2.16-.6.36-1.2.36-.28.92-1.38,1.68-3.3l.18-.66c.16-.08.33-.16.51-.24s.37-.16.57-.24c.24-.16.54-.52.9-1.08.32-.44.76-.78,1.32-1.02.16-.36.5-1,1.02-1.92.56-.36,1.3-.92,2.22-1.68.48-.64,1.44-1.62,2.88-2.94l1.08-.54c.32-.32.74-.71,1.26-1.17.52-.46,1.12-.99,1.8-1.59.2-.08.45-.19.75-.33s.65-.31,1.05-.51c.08-.08.18-.24.3-.48.12-.24.2-.38.24-.42l2.22-1.5h.9c.28,0,.9-.22,1.86-.66s1.68-.66,2.16-.66l1.8.18c.28,0,.62-.1,1.02-.3l.72-.3c.36,0,.74.14,1.14.42.28.2.5.35.66.45s.28.17.36.21c.8.2,1.86.58,3.18,1.14.24.4.7.98,1.38,1.74.16.04.34.09.54.15.2.06.42.17.66.33.04.04.34,1.16.9,3.36.04.08.07.16.09.24.02.08.07.16.15.24.12.24.18.46.18.66,0,.24-.07.6-.21,1.08s-.31,1.08-.51,1.8c-.4,1.4-.74,2.3-1.02,2.7h-.72c-.16,0-.26-.12-.3-.36-.04-.12-.08-.24-.12-.36-.08-.24-.18-.48-.3-.72-.12-.24-.22-.48-.3-.72-.04-.08-.02-.68.06-1.8.04-.52-.34-1.32-1.14-2.4-.8-1.04-1.46-1.68-1.98-1.92-.36-.04-.98-.16-1.86-.36-.32-.2-.75-.39-1.29-.57-.54-.18-1.17-.37-1.89-.57-.44,0-1.08.12-1.92.36-.92.24-1.6.36-2.04.36s-.98.22-1.62.66c-.4.28-.72.5-.96.66s-.42.26-.54.3c-.4,0-.92.12-1.56.36-.08.12-.21.27-.39.45-.18.18-.37.37-.57.57-.32.08-.88.36-1.68.84-.16.36-.42.76-.78,1.2-.52.24-1.14.5-1.86.78-.44.2-.83.44-1.17.72-.34.28-.61.58-.81.9-.12.52-.42,1.22-.9,2.1h-.3c-.16.36-1.2,1.12-3.12,2.28l-.18-.06c-.08.32-.2.7-.36,1.14-.16.44-.36.94-.6,1.5-.2.16-.41.35-.63.57s-.49.49-.81.81c-.28.68-.72,1.52-1.32,2.52-.2.2-.44.46-.72.78-.28.32-.6.7-.96,1.14-.08.32-.32.9-.72,1.74-.24.2-.56.66-.96,1.38,0,.2.02.36.06.48.04.16.06.34.06.54-.08.08-.17.21-.27.39s-.23.37-.39.57c-.04.2-.08.43-.12.69s-.1.59-.18.99c-.16.16-.33.37-.51.63-.18.26-.39.57-.63.93-.4.96-.6,1.58-.6,1.86,0,.36.14.62.42.78l2.64-1.86,1.08-.72h0Z"/>
    <path d="M154.04,35.82h-.06c.36,0,.82.28,1.38.84l.18-.06s.14.14.3.42c.12.28.2.44.24.48.04.44-.02,1.04-.18,1.8l-.18.9c-.04.16-.08.31-.12.45s-.08.29-.12.45c-.08.44-.04.76.12.96l.36.72c.2.04.36.07.48.09s.22.03.3.03l.9-.36v.72c-.04.16-.06.3-.06.42s-.02.22-.06.3c-.16.68-.44,1.18-.84,1.5-.56.12-1.18.52-1.86,1.2h-.36c-.2.32-.5.68-.9,1.08h-.48c-.36.2-.76.38-1.2.54-.28.08-.57.18-.87.3-.3.12-.65.22-1.05.3-.8.2-1.43.39-1.89.57s-.79.31-.99.39c-.08.08-.19.18-.33.3s-.31.26-.51.42-.4.32-.6.48c-.2.16-.42.34-.66.54-.44.72-.78,1.72-1.02,3l-.06.36c.8.44,1.32.66,1.56.66.76,0,1.94-.56,3.54-1.68,1.64-1.16,2.52-2.02,2.64-2.58-.04-.28-.04-.66,0-1.14.12-.76,1.12-1.14,3-1.14.88,0,1.24.26,1.08.78-.04.36-.24.72-.6,1.08-.16.16-.32.3-.48.42-.16.12-.32.24-.48.36-.08.16-.18.33-.3.51-.12.18-.24.39-.36.63-.32.48-.62,1.08-.9,1.8-.2,0-.34-.02-.42-.06h-.9l-2.22,1.38-.48.6c-.24.08-.51.19-.81.33-.3.14-.61.29-.93.45-.16.12-.32.24-.48.36-.16.12-.34.24-.54.36s-.38.24-.54.36c-.16.12-.32.26-.48.42-.56.32-1.44.48-2.64.48-2.08,0-3.12-.62-3.12-1.86,0-.32.02-.54.06-.66.44-.92.89-1.87,1.35-2.85s.93-1.99,1.41-3.03v-.96c.04-.28.44-.94,1.2-1.98.76-1.08,1.18-1.86,1.26-2.34,0-.2.08-.38.24-.54l.54-.54c.08-.08.16-.18.24-.3s.16-.24.24-.36c.12-.12.22-.34.3-.66.04-.28.2-.52.48-.72.2-.16.37-.28.51-.36s.23-.14.27-.18c.12-.24.4-.76.84-1.56.12-.12.3-.24.54-.36.08-.08.18-.15.3-.21.12-.06.24-.13.36-.21.32-.16.56-.3.72-.42.24-.16.38-.28.42-.36.04-.12.14-.3.3-.54.08-.08.16-.19.24-.33.08-.14.16-.29.24-.45.2-.24.66-.58,1.38-1.02.76-.48,1.28-.72,1.56-.72h0ZM148.16,45.3v.06c-.2,1.16.12,1.74.96,1.74s1.26-.02,1.14-.06l1.2-1.2c.36-.36.58-.76.66-1.2.08-.6-.02-1.12-.3-1.56-.32-.48-.74-.72-1.26-.72-1.32,0-2.12.98-2.4,2.94h0Z"/>
    <path d="M179.9,42.3c0-2.36,1.46-4.14,4.38-5.34.88-.36,1.72-.54,2.52-.54h.6c.28,0,.64.04,1.08.12.32.04.64.07.96.09s.64,0,.96-.03c.16-.04.58-.16,1.26-.36.52-.16.94-.22,1.26-.18.4.2,1,.44,1.8.72.44.08,1.08.02,1.92-.18.44-.08.82-.13,1.14-.15.32-.02.58,0,.78.03.2.08.44.19.72.33.28.14.62.29,1.02.45.48-.04,1.2-.04,2.16,0,.4.36,1.12.78,2.16,1.26.12.04.3.08.54.12.24.04.54.08.9.12.16-.16.34-.36.54-.6.2-.24.46-.52.78-.84.52-.28,1.24-.82,2.16-1.62.2-.32.46-.73.78-1.22.32-.5.7-1.06,1.14-1.7.36-.32.79-.74,1.29-1.25s1.07-1.14,1.71-1.85c.08-.16.16-.33.24-.51s.18-.41.3-.69c.48-.4,1.02-.96,1.62-1.67.2-.36.48-.8.84-1.31.36-.52.78-1.12,1.26-1.79.6-.44,1.36-1.13,2.28-2.09.2-.24.5-1.15.9-2.75.2-.68.46-1.25.78-1.73.36-.48.62-.9.78-1.25.16-.72.52-1.69,1.08-2.93h.18c.08-.04.27-.17.57-.39s.73-.55,1.29-.99c1.16-.92,1.76-1.43,1.8-1.55.08-.08.22-.28.42-.6.32-.16.68-.32,1.08-.48.4-.16.84-.34,1.32-.54.12.08.27.18.45.3s.37.26.57.42c-.16.52-.36,1.13-.6,1.83s-.56,1.51-.96,2.43c-.16.16-.33.37-.51.63s-.37.55-.57.87c-.2.6-.51,1.35-.93,2.25s-.91,1.93-1.47,3.09c-.32.32-.74.8-1.26,1.44,0,.24-.06.56-.18.96-.04.44-.44,1.22-1.2,2.34-.68,1.04-1.12,1.84-1.32,2.4-.04.16-.08.36-.12.6s-.1.52-.18.84c-.12.36-.32.74-.6,1.14-.44.56-.68.92-.72,1.08-.16.36-.35.81-.57,1.35-.22.54-.49,1.19-.81,1.95-.08.2-.24.5-.48.9-.24.4-.58.94-1.02,1.62-1.88,3-3.04,5.4-3.48,7.2-.24,1-.32,1.6-.24,1.8-1.4,5.2-2.24,8.1-2.52,8.7-.04.08-.11.24-.21.48-.1.24-.23.56-.39.96-.16.52-.42,1.03-.78,1.53s-.88.95-1.56,1.35c-1.12.64-2.24,1.28-3.36,1.92l-.36.48h-1.02c0-.08,0-.2-.03-.36-.02-.16-.05-.4-.09-.72-.08-.4-.08-.76,0-1.08.16-.28.35-.61.57-.99s.47-.85.75-1.41c.28-.8.68-1.78,1.2-2.94s1.18-2.5,1.98-4.02c.32-.4.67-.88,1.05-1.44.38-.56.79-1.22,1.23-1.98l1.26-3.78c-.2-.04-.44-.06-.72-.06s-.58-.02-.9-.06c-.6-.04-.94-.1-1.02-.18-.12-.12-.24-.26-.36-.42-.48-.4-1.48-.7-3-.9-.16.16-.34.35-.54.57s-.46.47-.78.75l-7.74,5.58c-.28.28-.63.59-1.05.93s-.91.73-1.47,1.17c-.44.16-.95.38-1.53.66s-1.27.64-2.07,1.08c-.16.2-.38.44-.66.72-.28.28-.62.58-1.02.9-.44.16-.97.38-1.59.66s-1.35.64-2.19,1.08c-.08.08-.42.33-1.02.75s-1.27.88-2.01,1.38c-.74.5-1.44.97-2.1,1.41s-1.09.74-1.29.9c-.2.04-.45.1-.75.18s-.65.16-1.05.24c-.56.4-1.18.78-1.86,1.14-.68.36-1.46.74-2.34,1.14h-.24c-.12-.04-.22-.06-.3-.06-.28,0-.74.18-1.38.54-.32.2-.59.35-.81.45-.22.1-.37.17-.45.21-.44.08-1.04.14-1.8.18-.96.56-2.3,1.22-4.02,1.98-.8.2-1.78.3-2.94.3-3.48,0-5.04-.68-4.68-2.05.12-.36.54-.76,1.26-1.21.52-.32.9-.56,1.14-.72s.38-.26.42-.3.16-.16.36-.36.48-.52.84-.97c.52-.6.98-.92,1.38-.96.08-.04.26-.06.54-.06-.12,0,.46.18,1.74.54.84.24,2.24.36,4.2.36,2.64,0,4.56-.2,5.76-.6.24-.16.54-.34.9-.54s.78-.42,1.26-.67c.64-.12,1.6-.36,2.88-.72.08-.04.42-.26,1.02-.66s1.26-.83,1.98-1.27,1.41-.87,2.07-1.27,1.07-.66,1.23-.79c.64-.16,1.62-.56,2.94-1.21.6-.52,1.5-1.25,2.7-2.17.36-.12.92-.36,1.68-.72.44-.24.92-.56,1.44-.97.52-.4,1.08-.87,1.68-1.39.92-.8,1.62-1.4,2.1-1.8.48-.4.76-.64.84-.72.56-.32,1.21-.76,1.95-1.32.74-.56,1.61-1.22,2.61-1.98l.06-.18c-.24,0-.58-.22-1.02-.66s-.78-.66-1.02-.66c-.28,0-.86.18-1.74.54-.2.08-.38.14-.54.18s-.34.06-.54.06c-.32,0-.7-.08-1.14-.24s-.82-.24-1.14-.24c-.16,0-.3,0-.42.03s-.26.05-.42.09c-.36.24-.98.62-1.86,1.14-.24.12-.68.14-1.32.06-.68-.08-1.14-.04-1.38.12-.16.08-.32.16-.48.24l.06.18c-.48.48-.8.96-.96,1.44-.2.6-.38.96-.54,1.08-.2.2-.66.44-1.38.72-.44.24-.78.66-1.02,1.26l-.54.24.12.18c-.68,0-1.3-.17-1.86-.51s-.9-.55-1.02-.63c-.08-.2-.19-.22-.33-.06s-.49.2-1.05.12c-1.12-.16-1.86-.68-2.22-1.56-.24-.64-.36-1.26-.36-1.86v-.02ZM211.04,40.08c.56.32,1.02.58,1.38.78.36.2.64.34.84.42l.18-.18c.76-1.12,1.72-2.92,2.88-5.4.04-.12.06-.3.06-.54,0-.08-.28-.52-.84-1.32-.28,0-.72.08-1.32.24-.32.16-.94.76-1.86,1.8-1.08,1.2-1.74,1.9-1.98,2.1-.48.2-1.12.56-1.92,1.08.92.2,1.78.54,2.58,1.02Z"/>
    <path d="M236.12,35.82c.44,0,.96.32,1.56.96.6.6.94,1.14,1.02,1.62,0,.08-.36.68-1.08,1.8-.76,1.16-1.1,1.96-1.02,2.4,0,.08-.36.62-1.08,1.62s-1.04,1.98-.96,2.94c.08.32.04.52-.12.6-.08.08-.16.14-.24.18s-.16.1-.24.18c-.32.36-.59.7-.81,1.02s-.43.62-.63.9c-.04.2-.09.46-.15.78s-.15.7-.27,1.14c-.12.08-.32.3-.6.66-.16.28-.34.65-.54,1.11s-.4,1.03-.6,1.71l.36.6.78.24.18.3c.4.08.62.12.66.12.8,0,1.36-.42,1.68-1.26.08-.04.18-.08.3-.12.12-.04.26-.1.42-.18.04-.04.09-.08.15-.12.06-.04.13-.1.21-.18.2-.2.38-.3.54-.3l.54.3c.04.12.05.28.03.48s-.05.44-.09.72c-.08.24-.3.46-.66.66l-.84.48c-.32.32-.66.65-1.02.99s-.72.67-1.08.99c-.56.44-1.54.66-2.94.66l.12.06c-.08,0-.16.02-.24.06h-.24c-.8,0-1.26-.32-1.38-.96-.08-.32-.13-.64-.15-.96-.02-.32-.07-.64-.15-.96,0-.64-.16-1.08-.48-1.32l-.66-.06c-.4-.04-.78.12-1.14.48-.44.36-.68.74-.72,1.14-.16.08-.46.16-.9.24-.48,0-.78.04-.9.12-.08,0-.52.3-1.32.9-.44.4-1.08.6-1.92.6h-1.38c-.24,0-.26-.02-.06-.06-.56-.28-.88-.8-.96-1.56,0-.2.5-1.22,1.5-3.06,1-1.8,1.46-3.08,1.38-3.84,0-.2.16-.58.48-1.14.36-.64.52-1.24.48-1.8,0-.32.08-.56.24-.72.24-.16.36-.3.36-.42v-.48c-.2-.16-.39-.3-.57-.42-.18-.12-.31-.22-.39-.3-.16-.16-.28-.44-.36-.84-.04-.48.18-1.12.66-1.92.2-.36,2-2.24,5.4-5.64.08-.08.14-.18.18-.3s.14-.26.3-.42c.08,0,.18,0,.3-.03.12-.02.28-.05.48-.09.76.52,1.18,1.26,1.26,2.22.08.92-.36,1.7-1.32,2.34-.96.68-1.38,1.54-1.26,2.58.04.48-.1.96-.42,1.44-.28.4-.48.7-.6.9-.12.2-.2.32-.24.36-.04.28-.09.6-.15.96s-.17.76-.33,1.2c-.44.28-.98.86-1.62,1.74v1.32c0,.32.02.52.06.6-.64.64-.94,1.16-.9,1.56l.18.9h.12l.36.18s.22-.04.54-.12c.28-.12.5-.18.66-.18.08,0,.28.04.6.12.28.12.48.18.6.18l.24-.06c1.24-1.48,2.32-2.44,3.24-2.88.08-.16.17-.33.27-.51.1-.18.23-.41.39-.69.2-.16.44-.36.72-.6.28-.24.58-.56.9-.96.12-.28.18-.7.18-1.26,0-.6.06-1.02.18-1.26.16-.44.44-.9.84-1.38.2-.2.3-.52.3-.96,0-.16,0-.37-.03-.63-.02-.26-.05-.59-.09-.99-.08-.56-.02-.96.18-1.2.16-.28.46-.64.9-1.08l1.26-2.34c.64-1.2,1.14-1.8,1.5-1.8h.06Z"/>
    <path d="M239.06,77.94l-3.78,4.08c-.24.08-.47.19-.69.33s-.43.29-.63.45c-.44.32-.78.6-1.02.84-.16.12-.29.24-.39.36s-.19.22-.27.3l-.3.3c-.36,0-.8.16-1.32.48-.24.16-.45.29-.63.39-.18.1-.31.17-.39.21-.24,0-.44.08-.6.24-.08.08-.18.16-.3.24-.12.08-.26.16-.42.24-.12.08-.25.17-.39.27s-.29.19-.45.27c-.16.08-.31.14-.45.18s-.31.08-.51.12c-.28.12-.56.24-.84.36s-.58.24-.9.36c-.6.24-1.2.36-1.8.36-1.6,0-2.68-.14-3.24-.42-.72-.24-1.58-.86-2.58-1.86-.16-.28-.24-1.16-.24-2.64,0-.8.06-1.24.18-1.32l.48-.48c0-.16.1-.68.3-1.56.12-.08.3-.24.54-.48.08-.08.17-.18.27-.3s.23-.26.39-.42c.04-.16.1-.34.18-.54.08-.2.16-.4.24-.6.56-.72,1.11-1.41,1.65-2.07.54-.66,1.07-1.27,1.59-1.83.52-.56,1.03-1.12,1.53-1.68s1.03-1.1,1.59-1.62c.52-.52,1.05-1.04,1.59-1.56s1.09-1.04,1.65-1.56,1.15-1.03,1.77-1.53c.62-.5,1.27-1.03,1.95-1.59.64-.48,1.6-1.2,2.88-2.16.04-.08.08-.15.12-.21.04-.06.1-.13.18-.21.04-.16.16-.34.36-.54.2-.12.42-.26.66-.42s.48-.34.72-.54c.44-.56.66-1.4.66-2.52,0-.64-.18-1.18-.54-1.62-.36-.4-.54-.76-.54-1.08,0-1.4.18-2.56.54-3.48.28-.32.52-.7.72-1.14.04-.04,0-.52-.12-1.44,0-.36.28-.82.84-1.38.8-.6,1.22-.98,1.26-1.14.08-.16.17-.34.27-.54s.23-.44.39-.72c.12-.24.25-.5.39-.78s.29-.58.45-.9c.12-.08.24-.17.36-.27.12-.1.26-.23.42-.39.08-.24.16-.42.24-.54.04-.16.16-.4.36-.72l.54-.3c.32-.68,1.08-1.56,2.28-2.64,1.24-1.08,2.22-1.68,2.94-1.8.24.04.68,0,1.32-.12.12-.12.2-.22.24-.3.12-.12.2-.24.24-.36.2-.2.41-.39.63-.57s.43-.37.63-.57l1.26-1.08c.16.08.4.2.72.36.04.32.22.8.54,1.44.04.04.18.17.42.39s.6.55,1.08.99c.6.56.9,1.14.9,1.74l-.06.3-.3.48v.9c0,.68-.46,1.08-1.38,1.2-1.28.12-2,.24-2.16.36v.12c-.24.08-.36.28-.36.6l-.24.6c-.08.04-.15.1-.21.18-.06.08-.13.16-.21.24-.24.24-.42.44-.54.6-.04.2-.1.43-.18.69-.08.26-.16.53-.24.81l-.3.3c-.04.08-.16.22-.36.42-.04.2-.1.43-.18.69-.08.26-.16.53-.24.81,0,.04-.18.2-.54.48-.12.2-.18.44-.18.72,0,.4.18.6.54.6.28,0,.66-.12,1.14-.36.52-.2.88-.3,1.08-.3h.78c0,.48.02.76.06.84-1.04.92-2.12,1.82-3.24,2.7-.56.44-1.11.9-1.65,1.38s-1.09.98-1.65,1.5c-.04.56-.22,1.36-.54,2.4-.2.36-.62.84-1.26,1.44-.28.24-.42,1.34-.42,3.3,0,.36-.2,1-.6,1.92-.2.56-.38.98-.54,1.26-.08.16-.14.29-.18.39s-.08.19-.12.27c-.48.28-.92.98-1.32,2.1.12,1.76-.28,3.46-1.2,5.1,0,.8-.14,1.54-.42,2.22-.24.68-.54,1.34-.9,1.98h0ZM237.44,73.26l.54-.36v-.24s.06-.12.06-.24c0-.16.06-.42.18-.78s.18-.68.18-.96.18-.72.54-1.32c.44-.56.68-.94.72-1.14.08-.32.16-.63.24-.93s.16-.61.24-.93l.18-1.8c.04-.08.08-.16.12-.24.04-.08.1-.16.18-.24.16-.24.26-.42.3-.54.36-.64.54-1.34.54-2.1,0-.72-.28-1.08-.84-1.08-.24,0-1.26.88-3.06,2.64-1.92,1.8-2.94,2.68-3.06,2.64-.4.4-.79.8-1.17,1.2-.38.4-.77.8-1.17,1.2-.4.4-.8.79-1.2,1.17s-.82.77-1.26,1.17l-.54.18c-.08.04-.17.08-.27.12s-.23.08-.39.12c-.24.16-.54.42-.9.78-.2.2-.39.37-.57.51-.18.14-.31.25-.39.33-.08.04-.22.16-.42.36-.08.08-.15.16-.21.24s-.13.16-.21.24v.6c-.16.2-.32.4-.48.6-.16.2-.34.42-.54.66-.36.48-.78,1.02-1.26,1.62-.08.08-.19.21-.33.39s-.29.41-.45.69c-.48.56-.72,1.28-.72,2.16,0,2.44,1.02,3.66,3.06,3.66,1.16-.2,2.2-.52,3.12-.96.48-.24.95-.49,1.41-.75s.91-.53,1.35-.81.87-.56,1.29-.84.85-.58,1.29-.9c.8-.52,1.68-1,2.64-1.44h.06c.04-.12.06-.28.06-.48,0-.16.02-.28.06-.36.28-.6.54-1.24.78-1.92.2-.68.3-1.32.3-1.92h0ZM237.38,78.24h.18s.06-.08.06-.12v-.06l.12-.24-.18.18c-.04.08-.1.16-.18.24ZM246.2,43.32h-.06s-.12.11-.24.21c-.12.1-.3.25-.54.45-.2.2-.48.44-.84.72-.36.28-.76.62-1.2,1.02-1.04.88-1.56,2-1.56,3.36,0,.16-.08.32-.24.48-.08.08-.16.18-.24.3s-.16.26-.24.42l-.24.48c-.08.16-.16.34-.24.54-.12.36-.18.78-.18,1.26,0,.12-.06.3-.18.54-.08.24-.12.42-.12.54,0,.72.56,1.08,1.68,1.08.64,0,1.42-.52,2.34-1.56.88-1,1.32-1.84,1.32-2.52,0-.28.14-.62.42-1.02.24-.28.4-.56.48-.84v-1.44c0-.12.06-.28.18-.48.04-.16.16-.36.36-.6l.36-.72c.08-.32.12-.54.12-.66,0-.32-.16-.84-.48-1.56l-.48.06-.18-.06Z"/>
    <path d="M271.88,35.82c.44,0,.96.32,1.56.96.6.6.94,1.14,1.02,1.62,0,.08-.36.68-1.08,1.8-.76,1.16-1.1,1.96-1.02,2.4,0,.08-.36.62-1.08,1.62s-1.04,1.98-.96,2.94c.08.32.04.52-.12.6-.08.08-.16.14-.24.18s-.16.1-.24.18c-.32.36-.59.7-.81,1.02s-.43.62-.63.9c-.04.2-.09.46-.15.78s-.15.7-.27,1.14c-.12.08-.32.3-.6.66-.16.28-.34.65-.54,1.11s-.4,1.03-.6,1.71l.36.6.78.24.18.3c.4.08.62.12.66.12.8,0,1.36-.42,1.68-1.26.08-.04.18-.08.3-.12.12-.04.26-.1.42-.18.04-.04.09-.08.15-.12.06-.04.13-.1.21-.18.2-.2.38-.3.54-.3l.54.3c.04.12.05.28.03.48s-.05.44-.09.72c-.08.24-.3.46-.66.66l-.84.48c-.32.32-.66.65-1.02.99s-.72.67-1.08.99c-.56.44-1.54.66-2.94.66l.12.06c-.08,0-.16.02-.24.06h-.24c-.8,0-1.26-.32-1.38-.96-.08-.32-.13-.64-.15-.96s-.07-.64-.15-.96c0-.64-.16-1.08-.48-1.32l-.66-.06c-.4-.04-.78.12-1.14.48-.44.36-.68.74-.72,1.14-.16.08-.46.16-.9.24-.48,0-.78.04-.9.12-.08,0-.52.3-1.32.9-.44.4-1.08.6-1.92.6h-1.38c-.24,0-.26-.02-.06-.06-.56-.28-.88-.8-.96-1.56,0-.2.5-1.22,1.5-3.06,1-1.8,1.46-3.08,1.38-3.84,0-.2.16-.58.48-1.14.36-.64.52-1.24.48-1.8,0-.32.08-.56.24-.72.24-.16.36-.3.36-.42v-.48c-.2-.16-.39-.3-.57-.42s-.31-.22-.39-.3c-.16-.16-.28-.44-.36-.84-.04-.48.18-1.12.66-1.92.2-.36,2-2.24,5.4-5.64.08-.08.14-.18.18-.3.04-.12.14-.26.3-.42.08,0,.18,0,.3-.03.12-.02.28-.05.48-.09.76.52,1.18,1.26,1.26,2.22.08.92-.36,1.7-1.32,2.34-.96.68-1.38,1.54-1.26,2.58.04.48-.1.96-.42,1.44-.28.4-.48.7-.6.9s-.2.32-.24.36c-.04.28-.09.6-.15.96s-.17.76-.33,1.2c-.44.28-.98.86-1.62,1.74v1.32c0,.32.02.52.06.6-.64.64-.94,1.16-.9,1.56l.18.9h.12l.36.18s.22-.04.54-.12c.28-.12.5-.18.66-.18.08,0,.28.04.6.12.28.12.48.18.6.18l.24-.06c1.24-1.48,2.32-2.44,3.24-2.88.08-.16.17-.33.27-.51.1-.18.23-.41.39-.69.2-.16.44-.36.72-.6.28-.24.58-.56.9-.96.12-.28.18-.7.18-1.26,0-.6.06-1.02.18-1.26.16-.44.44-.9.84-1.38.2-.2.3-.52.3-.96,0-.16-.01-.37-.03-.63-.02-.26-.05-.59-.09-.99-.08-.56-.02-.96.18-1.2.16-.28.46-.64.9-1.08l1.26-2.34c.64-1.2,1.14-1.8,1.5-1.8h.06Z"/>
    <path d="M287.18,36v-.06l.9.36c1.2.24,1.98.46,2.34.66.24.2.42.94.54,2.22,0,.16.08.34.24.54.16.16.24.34.24.54,0,.12-.06.3-.18.54-.16.24-.32.44-.48.6-.24.24-.44.42-.6.54-.2.12-.36.18-.48.18-.2,0-.38-.08-.54-.24-.08-.08-.18-.15-.3-.21-.12-.06-.22-.13-.3-.21-.08-.08-.18-.16-.3-.24s-.22-.16-.3-.24c-.2-.12-.38-.18-.54-.18-.32,0-.92.3-1.8.9.28.76.46,1.56.54,2.4.04.08.08.16.12.24s.06.16.06.24c.08.12.16.3.24.54.04.2-.02.38-.18.54-.12.2-.18.38-.18.54.04.28.06.52.06.72v.54c.04.16.06.3.06.42.12.32.24.74.36,1.26.04.32-.06.6-.3.84-.16.16-.28.32-.36.48,0,.44-.12,1.08-.36,1.92-.44.8-1.48,2.02-3.12,3.66v.3s-.18.14-.42.3c-.24.16-.38.26-.42.3l.06.3c-1.52,1.64-2.74,2.46-3.66,2.46-.12,0-.32-.06-.6-.18-.32-.08-.52-.12-.6-.12-.16,0-.44.1-.84.3-.32.2-.58.3-.78.3-.24,0-.54-.08-.9-.24-.36-.12-.64-.18-.84-.18s-.4.02-.6.06-.42.06-.66.06h-1.08c-.12-.04-.32-.06-.6-.06h-.48c-.08-.16-.16-.34-.24-.54s-.16-.44-.24-.72c-.16-.44-.34-1.02-.54-1.74.16-.28.26-.98.3-2.1,0-.08.64-1.06,1.92-2.94h.24c.2.04.4.08.6.12.2.04.42.08.66.12.48.08.76.22.84.42.2.44.38.66.54.66.2-.08.4-.02.6.18.04.08.1.2.18.36.04.08.08.16.12.24s.08.16.12.24c.24,0,.54.06.9.18.04.04.13.14.27.3.14.16.37.4.69.72.28.4.88.6,1.8.6,2.28,0,3.78-1.46,4.5-4.38.08-.28.28-.62.6-1.02.32-.48.46-.84.42-1.08-.24-.24-.54-1.24-.9-3-.04-.2-.08-.41-.12-.63s-.1-.47-.18-.75-.15-.57-.21-.87-.13-.61-.21-.93c.08-.44.14-1.3.18-2.58-.08-.64.14-1.1.66-1.38.2-.12.37-.23.51-.33.14-.1.25-.19.33-.27.24-.16.38-.28.42-.36l.18-.36c.04-.08.1-.24.18-.48.04-.12.34-.36.9-.72.6-.4.94-.6,1.02-.6h0Z"/>
    <path d="M307.21,26.82h-.06c.72,0,1.08.28,1.08.84,0,.52-.42,1.62-1.26,3.3-.8,1.68-1.4,2.6-1.8,2.76l-1.8,2.46c.12,0,.07.13-.15.39s-.46.54-.72.84-.49.57-.69.81-.24.38-.12.42c.12,0,.42.02.9.06.48.04,1.01.07,1.59.09s1.13.05,1.65.09.84.08.96.12v.54l.06.24c-.04.12-.28.46-.72,1.02-.2.28-.44.59-.72.93s-.58.73-.9,1.17c-.32.12-1,.18-2.04.18-.2,0-.52-.04-.96-.12-.44-.08-.74-.08-.9,0s-.26.26-.3.54c-.04.28-.12.46-.24.54s-.12.13,0,.15.14.07.06.15c-.44.32-.73.6-.87.84-.14.24-.26.47-.36.69-.1.22-.2.44-.3.66-.1.22-.29.47-.57.75-.08.2-.17.18-.27-.06-.1-.24-.17-.34-.21-.3-.12.24-.24.64-.36,1.2-.2.6-.36.98-.48,1.14-.04.04-.32.38-.84,1.02-.36.44-.54.84-.54,1.2.04.2.06.38.06.54v.36c0,.28-.18.6-.54.96-.4.36-.6.76-.6,1.2,0,.64.32,1.02.96,1.14.32.08.63.13.93.15s.61.05.93.09c.72-1.2,1.6-1.8,2.64-1.8.64,0,.96.22.96.66,0,.8-.6,1.44-1.8,1.92-.2.08-.42.16-.66.24s-.46.16-.66.24c-.24.08-.48.16-.72.24s-.46.16-.66.24c-.2.12-.54.52-1.02,1.2-.32.44-.78.66-1.38.66-1.24,0-2.06-.2-2.46-.6-.44-.36-.66-1.12-.66-2.28,0-1.52.1-2.68.3-3.48.2-.4.52-.82.96-1.26.48-.48.86-1.06,1.14-1.74.2-.32.38-1.02.54-2.1.04-.36.14-.76.3-1.2.16-.44.32-.89.48-1.35s.32-.9.48-1.32.28-.79.36-1.11c.04-.08-.08-.24-.36-.48-.28-.24-.6-.5-.96-.78s-.69-.56-.99-.84-.41-.48-.33-.6c.04-.12.31-.3.81-.54s1.03-.46,1.59-.66,1.3-.46,2.22-.78c.6-.4.98-.86,1.14-1.38.08-.08.22-.38.42-.9s.64-1.06,1.32-1.62c.28-.24.64-.66,1.08-1.26.12-.16.25-.39.39-.69s.29-.62.45-.96c.16-.34.31-.64.45-.9s.25-.41.33-.45c.16-.04.36-.18.6-.42.08-.08.19-.17.33-.27.14-.1.29-.19.45-.27.12-.12.24-.26.36-.42.08-.12.21-.27.39-.45.18-.18.37-.41.57-.69.52-.6,1.1-.9,1.74-.9h0Z"/>
  </g>
  <path d="M363.39,75.61c-.61,1.63-6,9.57-1.15,10.82.99.26,9.86-7.53,10.24-9.67,0-.05.06-.08.1-.06l3.38,1.34c.24.09.41.32.44.57.93,7.82-1.66,14.55,1.94,22.03.08.16.04.37-.11.47-5.12,3.61-13.99-9.77-17.73-3.18-4.4,7.75,9.05,8.92,12.66,10.76,10.41,5.29,14.88,15.05,19.32,25.19l8.15-2.81c4.57-5.73-12.07-12.02-7.96-15.23,6.54-.95,13.29-2,19.94-1.47,20.59,1.62,3.79,6.06-.34,14.53l3,1.88c2.96-.65,8.41-10.46,12.92-7.34.83.95-.04,22.16-.47,23.87-2.38,9.37-10.45-3.9-13.62-2.38l-.93,2.68c2.35,1.79,3.94,4.62,5.96,6.55,2.48,2.36,6.55,1.06,4.74,5.94-3.44,3.94-6.47.67-11.27,1.21-3.97.45-13.98,5.71-13.96-1.46.01-4.04,6.46-7.68,3.84-12.82-11.98-5.25-10.05,3.48-14.05,9.71-1.5,2.34-4.3,8.44-10.05,11.93-5.84,3.54-13.09,3.69-13.44,6.16-.27,1.87.44,3.64.44,3.64.12.31.24.55.33.7l3.29,2.82c.39.34.97.34,1.37.02l10.3-8.39c.56-.46,1.41-.12,1.5.61l2.77,22.66c-2.18.31-3.78,3.12-6.1,2.89-3.81-.39-13.81-16.48-6.28,5.75.24.72-.28,1.48-1.04,1.5l-23.73.53c-.78.02-1.41-.64-1.36-1.42l.78-11.61c-6.24,1.47-8.04,8.74-14.7,7.13l-2.14-2.76c4.31-8-.69-16.86,3.43-24.74l2.14-.75c4.11,3.61,6.14,7.19,12.43,6.8,2.71-.17,4.62-3.4,3.03-5.88-.44-.69-12.27-4.51-15.11-6.27-.86-.53-7.54-5.59-7.82-6-1.33-1.88-1.87-7.62-3.09-8.93-2.8-3.01-12.73-1.7-16.45-.73-.14,4.48,3.49,4.37,5.96,6.86.25.25.36.61.34.96l-.1,1.63c-.03.43-.27.83-.66,1.01-4.53,2.18-8.77.2-13.53.84-3.31.44-10.6,5.08-13.29,2.81-4.57-3.87,7.35-9.21,6.41-13.54-7.47-3.23-10.74,3.22-16.86,3.51-.81.04-1.47-.64-1.47-1.45l-.07-19.29c0-.55.26-1.07.7-1.4l.88-.66c.31-.23.7-.3,1.07-.2l11.93,3.27c.39.11.8,0,1.09-.29l1.68-1.68c.24-.24.32-.58.22-.9-1.24-4.08-8.79-10.8-4.85-14.2,3.33-2.87,7.34,1.22,10.19,1.76,6.37,1.2,16.23-2.8,18.46,5.2.1.36-.11.74-.48.81-3.14.59-11.15,7.39-10.02,8.9,22.79,4.67,13.61-4.01,20.78-15.15,4.89-7.6,14.41-10.15,20.83-16.02l-3.24-6.78c-2.12-.47-7.39,6.03-7.66,8.08l-3.1.22-4.17-23.77c4.49-7.95,13.46,6.3,16.42,2.71l.47-1.7-7.45-10.57c-.34-.48-.01-1.14.57-1.17l23.2-1.1c1.94,1.13.71,3.04.17,4.5h.04ZM360.67,133.35c.12.16,2.75.13,3.97,1.08s2.37,3.19,3.39,3.44c2.27.56,15.69-.96,15.82-4.78.22-6.73-13.25-24.26-22.35-20.54-1.6.49-1.46,19.95-.82,20.79h-.01ZM351.54,116.34l-2.22-2.29c-.51-.53-1.32-.67-1.96-.32-8.31,4.57-13.44,13.52-15.36,22.7-.13.6.3,1.18.91,1.24l16.24,1.83c.57.06,1.14-.14,1.55-.55l.53-.76c1.26-1.81,2.81-3.4,4.6-4.7h0l-4.29-17.17v.02ZM381.83,155.18c5.27-10.39-6.87-12.21-14.55-11.51-4.34,7.3-4.98,15.17-1.21,22.86,4.55,2.4,14.13-8.14,15.76-11.35h0ZM354.69,166.03c-.14-3.23,3.9-15.37,1.81-17.49-5.44-5.5-18.32-1.75-24.36,1.76,3.93,10.48,11.57,15.3,22.55,15.73h0Z"/>
</svg>